<svg width="200" height="200" viewBox="0 0 200 200" fill="none" xmlns="http://www.w3.org/2000/svg">
<path d="M62.5104 44.5798C59.0404 44.7098 56.0704 48.3098 57.4104 51.5798C58.6204 54.4798 62.5304 54.1998 64.9204 53.1498C69.6004 51.1498 67.6104 44.3998 62.5104 44.5798ZM65.2604 52.1998C63.1704 53.5298 58.9704 53.7698 57.9204 51.4398C56.8704 49.1098 58.9204 45.8798 61.8704 45.4398C66.4004 44.6198 68.5204 50.1298 65.2604 52.1998ZM83.5404 48.0998C84.3204 47.0998 85.8304 46.2498 86.9604 46.7598C87.6204 47.0698 88.0104 46.1998 87.2604 46.0598C86.48 45.923 85.6766 46.021 84.952 46.3415C84.2274 46.6619 83.6143 47.1904 83.1904 47.8598C83.1747 47.8827 83.1636 47.9086 83.1578 47.9359C83.1521 47.9631 83.1517 47.9912 83.1568 48.0186C83.162 48.046 83.1724 48.0722 83.1876 48.0955C83.2028 48.1189 83.2225 48.139 83.2454 48.1548C83.2684 48.1705 83.2943 48.1816 83.3216 48.1874C83.3488 48.1931 83.3769 48.1935 83.4043 48.1883C83.4317 48.1832 83.4579 48.1728 83.4812 48.1576C83.5046 48.1424 83.5247 48.1227 83.5404 48.0998ZM40.6304 17.7598C42.4757 18.5514 44.4047 19.1318 46.3804 19.4898C46.6204 19.4898 46.7504 19.1998 46.8104 19.0198C47.6072 16.5498 49.232 14.4304 51.4104 13.0198C59.7404 8.11975 67.7604 16.4898 64.2704 24.4098C62.3304 28.7998 57.2704 30.0698 53.1404 31.2298C52.4004 31.4398 52.5704 31.7598 53.2904 33.4798C54.5038 36.3998 55.7004 39.3231 56.8804 42.2498C57.1204 42.8198 58.1404 42.4498 58.5504 42.3698C59.1904 42.2598 62.6904 41.8498 62.8004 40.9798C62.9104 40.1098 60.6604 35.4698 60.2304 34.4898C68.1704 32.3098 73.5404 23.8898 71.7304 15.7398C69.4604 5.62975 58.3904 3.23975 49.6204 6.14975C45.0004 7.68975 40.4004 11.8198 40.3304 17.0598C40.3304 17.5898 40.2304 17.5898 40.6304 17.7598ZM48.4704 7.26975C57.1604 3.90975 68.6304 5.51975 71.0004 15.9298C72.7804 23.6598 67.4504 31.7098 59.9204 33.7598C59.6204 33.8398 59.3004 33.9798 59.8304 35.0298C60.6704 36.7398 62.0004 40.1298 62.3004 40.7998C60.7296 41.3134 59.1168 41.6881 57.4804 41.9198L53.3004 31.9998C57.2404 31.7398 63.3004 28.6098 64.9804 24.7698C68.3604 16.9998 61.0004 7.75975 52.0004 11.9998C50.6097 12.6583 49.384 13.6198 48.4133 14.8138C47.4425 16.0078 46.7513 17.4039 46.3904 18.8998L40.7904 17.2598C40.8604 12.9998 44.6404 8.74975 48.4704 7.26975ZM85.1704 50.8398C84.5704 50.2898 83.0004 52.6298 83.8004 53.1098C84.2504 53.3698 85.7804 51.3998 85.1704 50.8398ZM98.2604 50.3498C98.834 50.6737 99.314 51.1404 99.654 51.7046C99.9939 52.2688 100.182 52.9113 100.2 53.5698C100.201 53.618 100.217 53.6649 100.246 53.7031C100.276 53.7413 100.317 53.7688 100.363 53.7813C100.41 53.7938 100.459 53.7907 100.504 53.7723C100.549 53.754 100.586 53.7214 100.61 53.6798C101.23 52.0498 99.9904 50.4398 98.6804 49.5798C98.1504 49.2198 97.7204 50.1898 98.2604 50.3498ZM91.0804 66.7397C92.4904 65.5997 94.7904 65.3998 95.9304 67.0498C96.7904 68.2998 96.0604 69.8298 94.5204 69.4498C94.0862 69.2735 93.6651 69.0663 93.2604 68.8298C93.2229 68.8158 93.1822 68.8123 93.1428 68.8198C93.1034 68.8273 93.0668 68.8454 93.0369 68.8722C93.007 68.8989 92.9851 68.9333 92.9734 68.9717C92.9616 69.01 92.9606 69.0509 92.9704 69.0898C93.5204 70.7398 96.7804 70.6597 97.0304 68.4897C97.3304 65.8997 93.4804 63.8397 90.8604 66.4897C90.8273 66.5189 90.8071 66.5601 90.8043 66.6041C90.8015 66.6482 90.8163 66.6916 90.8454 66.7248C90.8746 66.7579 90.9158 66.7781 90.9598 66.7809C91.0039 66.7837 91.0473 66.7689 91.0804 66.7397ZM94.6204 56.9998C95.6204 57.4598 96.6204 54.9498 95.8104 54.6098C95.0004 54.2698 94.0004 56.7398 94.6204 56.9998ZM88.0504 60.6698C89.4604 61.2398 89.2404 60.5098 89.0504 60.3398C87.9119 59.7618 86.7359 59.2607 85.5304 58.8398C87.0004 56.5098 88.3904 54.1498 90.0004 51.9098C90.1404 51.7198 89.8404 51.4798 89.7004 51.6798C88.1804 53.8098 86.6404 55.9298 85.1704 58.0898C84.2304 59.4598 84.5304 59.2498 88.0504 60.6698ZM124 143.66C124.693 143.309 125.244 142.73 125.56 142.021C125.877 141.312 125.939 140.516 125.738 139.766C125.536 139.016 125.082 138.358 124.452 137.904C123.823 137.449 123.056 137.225 122.28 137.27C117.05 137.27 117.48 147.24 124 143.66ZM145.62 120.73C147.8 122.83 152.78 121.93 151.24 117.53C149.41 112.28 141.66 116.92 145.62 120.73ZM139.81 158.32C132.95 158.88 136.56 168.39 141.42 165.51C144.73 163.54 143.25 158 139.81 158.32ZM122.09 109.55C121.3 106.22 115.74 105.39 114.5 109.25C112.56 115.34 123.36 114.92 122.09 109.55ZM164.56 143.45C157.61 145.97 168.1 156.18 169.89 147.05C170.56 143.69 167.37 142.43 164.56 143.45ZM99.1604 128.1C98.381 128.212 97.6628 128.586 97.1231 129.159C96.5834 129.732 96.2542 130.472 96.1892 131.257C96.1241 132.042 96.3272 132.825 96.7652 133.48C97.2032 134.134 97.8502 134.621 98.6004 134.86C103.75 136.4 104.62 127.3 99.1604 128.1Z" fill="black"/>
<path d="M181.16 156.7C180.81 141.06 171.26 124.79 161.55 112.86C163.89 109.654 165.21 105.818 165.338 101.851C165.467 97.8839 164.397 93.9703 162.27 90.6197C159.54 86.3197 155.86 84.8297 154.7 81.6197C153.3 77.7997 155.05 73.6197 154.81 69.7597C154.53 65.1197 151.81 60.0097 147.02 58.7597C143.84 57.9297 139.14 59.4097 137.43 53.6097C136.09 49.0597 138.43 42.3297 134.43 35.9797C132.29 32.5697 128.52 30.6797 124.85 29.3897C120.21 27.7597 114.72 27.1197 110.25 29.5397C107.578 28.5099 104.694 28.1495 101.85 28.4897C105 25.2097 106.35 18.3897 104.85 14.0697C104.39 12.7297 96.6201 18.2597 96.0601 25.1797C92.9101 21.4897 89.8001 20.2597 85.2201 19.6697C83.4601 19.4397 87.1301 28.5797 90.2801 29.7897C87.8801 30.0097 84.5601 30.7897 82.8301 32.5597C82.2876 33.2136 81.8822 33.97 81.6382 34.7839C81.3942 35.5977 81.3166 36.4524 81.4099 37.2969C81.5032 38.1414 81.7656 38.9585 82.1814 39.6994C82.5972 40.4404 83.1579 41.0901 83.8301 41.6097C80.2601 47.2897 77.1201 53.5397 76.5301 60.3197C73.6884 61.0262 71.2387 62.8222 69.7101 65.3197C65.4601 71.5197 70.4001 74.3197 68.8201 79.2197C66.9501 85.1097 61.3001 82.9197 58.6201 86.8297C56.6201 89.6597 57.0901 93.6497 59.0301 96.3997C56.1001 98.0797 52.4101 100.17 50.0901 102.58C50.6201 87.1697 48.6201 72.9197 47.8401 69.7397C47.7301 69.3197 46.1601 69.6497 45.7401 69.6797C46.5962 67.8289 47.1854 65.866 47.4901 63.8497C47.6601 61.9697 47.4901 59.2797 45.0801 59.1297C44.8701 58.5397 45.0801 52.4697 41.2301 49.1297C40.3901 48.3997 39.5001 48.2597 39.5201 49.5897C39.5201 51.5897 40.9101 53.3397 41.1001 56.5897C40.1866 56.6425 39.3079 56.9586 38.5701 57.4997C35.1801 56.6197 31.5101 64.3197 34.5701 64.8897C34.1672 66.3186 34.2624 67.8421 34.8401 69.2097C34.5701 69.2097 33.9901 68.9897 33.8401 69.2997C26.6101 83.3997 16.4201 108.63 19.2101 124.15C22.4601 142.22 41.9101 147.24 57.8001 145.44C58.7351 154.43 61.3756 163.159 65.5801 171.16C66.7601 173.38 71.5801 182.88 74.2501 185.1C73.4877 188.29 73.1017 191.559 73.1001 194.84C73.1001 195.16 73.5801 195.11 73.5901 194.84C73.6998 191.77 74.1118 188.719 74.8201 185.73C77.0276 186.656 79.2805 187.471 81.5701 188.17C99.5615 193.554 118.713 193.71 136.79 188.62C139.44 187.87 142.29 187.17 144.6 185.62C145.51 188.62 146.51 191.49 147.48 194.42C147.487 194.444 147.499 194.467 147.515 194.486C147.531 194.506 147.551 194.522 147.573 194.534C147.595 194.547 147.62 194.554 147.645 194.557C147.67 194.559 147.696 194.557 147.72 194.55C147.744 194.543 147.767 194.531 147.787 194.515C147.806 194.499 147.823 194.479 147.835 194.457C147.847 194.434 147.854 194.41 147.857 194.385C147.86 194.36 147.857 194.334 147.85 194.31C146.95 191.09 146.08 187.87 145.11 184.68C145.752 181.82 146.087 178.9 146.11 175.97C152.23 176.85 160.89 177.57 166.91 176.36C172.93 175.15 177.96 171.88 179.91 165.85C180.849 162.894 181.272 159.799 181.16 156.7ZM116.61 35.9397C118.45 39.4197 118.95 44.5097 118.37 48.3397C117.992 51.2353 116.827 53.9715 115 56.2497L114 55.9697C116.47 47.9697 114.21 38.8197 107.18 33.8997C104.388 32.1204 101.266 30.9231 98.0001 30.3797C103.87 26.9997 113.43 29.8997 116.61 35.9397ZM104.54 14.7197C105.12 22.6397 103.94 25.3397 100.54 28.7197C99.8957 28.8589 99.2709 29.0772 98.6801 29.3697C98.1782 28.0369 97.4584 26.7967 96.5501 25.6997C97.4001 21.1197 100 16.4997 104.54 14.7197ZM85.4901 20.2097C85.4901 20.0697 85.4901 20.0997 85.6101 20.1297C92.4001 21.6797 94.9401 23.5397 98.0701 29.7097C97.8301 29.8604 97.6057 30.0346 97.4001 30.2297C95.4691 29.8369 93.5001 29.6624 91.5301 29.7097C88.3901 29.1597 86.0001 23.0597 85.4901 20.2097ZM84.5901 41.9997C91.0901 45.5497 101.45 48.5897 109.13 47.5897C107.043 50.1105 105.972 53.3205 106.13 56.5897C106.25 59.1297 107.82 60.7897 110.03 58.9097C111.18 57.9097 112.65 56.1597 114.37 56.7297C116.09 57.2997 115.86 59.2697 115.15 60.7297C112.52 66.1197 107.47 65.2197 109.43 77.6597C109.764 79.7763 110.29 81.8581 111 83.8797C110.667 85.505 109.775 86.9625 108.48 87.9997C102.55 93.3797 91.1501 92.0897 91.3401 84.6997C91.3964 82.6618 91.3463 80.6224 91.1901 78.5897C87.2601 77.7897 82.2701 75.9697 79.8201 72.5297C78.9831 71.2774 78.3675 69.8905 78.0001 68.4297C76.3101 62.5497 77.4701 56.2697 79.8401 50.7397C81.1533 47.6875 82.7433 44.762 84.5901 41.9997ZM111.65 84.2697C112.75 84.3697 113.8 84.5197 114.84 84.6897C114.84 85.4897 115.84 88.6897 115.07 92.5497C114.32 96.6397 111.42 100.89 106.98 101.25C100.28 101.78 98.7301 95.1697 98.7601 91.9497C107.33 92.5597 112 85.6497 111.65 84.2697ZM97.4501 91.7897C96.9801 91.7897 95.8301 96.3897 91.6701 97.3297C87.7301 98.2297 85.3301 95.0797 86.0601 91.3297C86.6301 88.3297 88.8201 86.2597 89.2501 85.3297L90.6401 85.0197C90.3401 88.8397 93.6101 91.1397 97.4501 91.7897ZM46.0001 59.9997C47.5601 60.9997 46.7901 64.7797 46.3201 66.1997C45.9401 67.3697 45.4901 68.5297 45.0701 69.6897C41.8827 69.8318 38.689 69.6778 35.5301 69.2297C35.0995 67.7952 34.9501 66.2909 35.0901 64.7997C35.5463 64.674 35.9432 64.3905 36.2101 63.9997C37.1401 65.0897 38.5101 63.5297 39.2101 62.8597L40.9601 63.1397C39.7644 63.9999 38.8969 65.2412 38.5001 66.6597C38.5036 66.7036 38.5215 66.7451 38.551 66.7778C38.5805 66.8105 38.6199 66.8326 38.6632 66.8406C38.7065 66.8485 38.7513 66.842 38.7905 66.822C38.8297 66.8019 38.8612 66.7695 38.8801 66.7297C39.1669 65.952 39.6118 65.2421 40.1866 64.6449C40.7615 64.0477 41.4539 63.576 42.2201 63.2597C43.5001 62.8897 43.2201 62.3797 42.2201 62.5797C41.9101 62.6397 38.7701 62.4797 38.7101 61.9697C38.6501 61.4597 44.2101 58.8597 46.0001 59.9997ZM41.2401 57.1397V58.3397C41.2401 58.5297 41.5801 58.5397 41.6201 58.3397C42.4101 53.9697 40.3101 52.0497 40.3101 49.4197C40.3101 48.9297 40.6401 49.2797 40.8701 49.4197C44.1501 52.0497 44.4301 56.8797 44.5001 59.0797C42.5377 59.2619 40.6495 59.921 39.0001 60.9997C38.1601 61.4597 37.4701 62.2197 38.6301 62.7197C38.1501 63.0697 36.9301 64.4497 36.4901 63.4097C36.0501 62.3697 37.6601 57.2197 41.2101 57.1197L41.2401 57.1397ZM34.1901 63.6297C34.0001 61.3697 35.6501 58.2797 38.0001 57.9997C36.6601 59.3097 35.4601 62.3197 35.9101 63.6397C35.5001 64.1897 34.2401 64.9297 34.1601 63.6097L34.1901 63.6297ZM34.3201 69.5197C38.3701 70.6997 43.1201 70.2997 47.3201 70.1697L48.1301 75.8297C42.7434 76.2662 37.3215 75.817 32.0801 74.4997C32.8001 72.8197 33.5601 71.1797 34.2901 69.4997L34.3201 69.5197ZM178.32 167.92C173.72 162.61 168.79 170.92 172.99 173.36C169.42 175.43 165.25 176.07 161.18 176.18C146.46 176.58 130.99 172.91 117.7 166.66C118.38 158.66 116.51 152.44 113.8 148.35C125.03 145.48 133.68 144.76 144.5 144.12C144.68 144.12 144.72 143.8 144.5 143.79C142.403 143.691 140.302 143.728 138.21 143.9C138.02 143.01 131.49 136.38 125.21 122.9C125.11 122.69 124.78 122.79 124.87 123.01C128.037 130.151 132.045 136.889 136.81 143.08C137.02 143.36 137.24 143.64 137.48 143.91C126.471 144.53 115.593 146.609 105.13 150.09C104.65 150.26 104.98 150.75 105.26 150.97C103.764 151.047 102.281 151.292 100.84 151.7C100.18 151.33 97.9901 151.18 96.3701 149.61C94.3701 147.61 94.2101 152.29 96.7601 153.39C89.9401 157.12 88.4001 162.7 90.3801 162.49C90.8601 162.44 91.2401 161.97 91.5801 161.64C92.1701 161.09 92.7801 160.55 93.3601 159.97C90.5101 165.97 93.4901 167.81 94.3001 164.97C94.8429 163.068 95.8777 161.343 97.3001 159.97C95.6001 163.29 97.1001 167.4 98.5601 166.29C99.3801 165.65 99.0801 162.29 101.93 160.7C102.25 160.53 102.59 160.42 102.93 160.26C103.84 161.4 106.82 162.95 110.19 162.94C110.29 163.17 110.3 163.28 110.44 163.37C121.207 169.684 133.091 173.864 145.44 175.68C145.415 178.706 145.08 181.722 144.44 184.68C141.59 186.6 135 188.21 131.53 188.99C118.181 191.961 104.361 192.138 90.9401 189.51C87.8501 188.9 76.4901 186.37 74.6801 184.27C71.2901 180.34 69.7701 176.8 67.2201 172.27C62.1301 163.22 58.5501 151.42 58.4101 141.03C58.2048 132.94 60.3142 124.961 64.4901 118.03C66.4515 115.116 68.5748 112.315 70.8501 109.64C71.0101 109.46 70.7301 109.21 70.5801 109.39C66.7501 113.74 63.4401 117.68 61.1401 123.06C58.3176 129.84 57.1785 137.203 57.8201 144.52C45.4101 146.09 31.3801 143.73 23.7001 132.86C26.9901 131.52 25.9401 124.35 20.3501 125.55C17.8001 115.55 21.8101 100.84 25.0701 91.5497C27.0701 85.8397 29.4301 80.2797 31.9301 74.7597C34.4801 76.0297 42.8601 76.9397 48.2601 76.4197C49.712 88.2829 50.0134 100.259 49.1601 112.18C49.1601 112.4 49.4901 112.4 49.5301 112.18C49.9633 109.249 50.1906 106.292 50.2101 103.33C54.5201 99.2397 61.9601 95.3297 67.3401 92.7997C66.5901 94.7497 68.5501 97.0497 70.5901 97.0397C74.7901 97.0397 74.8301 91.3097 71.9001 90.7897C77.2078 88.5976 82.6818 86.832 88.2701 85.5097C86.2701 88.1997 84.2701 91.6197 85.7201 95.0197C87.4201 99.0997 93.4401 99.5097 96.9301 93.8397C92.3316 103.495 89.3615 113.845 88.1401 124.47C88.1401 124.71 88.4701 124.79 88.5101 124.55C90.0397 113.592 93.2897 102.944 98.1401 92.9997C98.1823 95.2184 98.9165 97.3686 100.24 99.1497C105.35 105.87 118.74 100.48 115.59 84.7997C123.057 86.1265 130.239 88.7313 136.82 92.4997C136.102 93.1314 135.64 94.0042 135.523 94.9532C135.405 95.9022 135.639 96.8616 136.18 97.6497C136.456 98.0711 136.813 98.4338 137.229 98.7172C137.645 99.0006 138.114 99.1991 138.607 99.3013C139.1 99.4035 139.609 99.4073 140.103 99.3127C140.598 99.218 141.069 99.0267 141.49 98.7497C141.883 98.4586 142.201 98.0783 142.418 97.6402C142.636 97.2021 142.746 96.7187 142.74 96.2297C153.64 103.83 162.43 114.11 169.43 125.32C174.8 133.92 179.51 144.09 180.29 154.44C180.63 159 180.36 163.79 178.32 167.9V167.92ZM98.9101 158L97.9801 159C93.5701 162 93.9801 166.63 92.9801 165.68C91.7501 164.48 93.8101 159.22 95.6601 157.58C97.2401 156.18 95.4101 156.38 93.9701 158.81L93.8901 158.89C92.7711 159.797 91.6997 160.762 90.6801 161.78C88.4401 163.84 91.4001 152.57 105.77 151.5C108.77 154.25 109.55 158.42 110.08 162.33C106 162.33 103.19 159.78 102.82 159.82C100.59 160.08 99.1501 162.6 98.6001 164.54C98.5301 164.78 98.3701 165.84 98.1301 165.92C97.3801 166.18 95.9501 161.4 99.1301 158.31C99.3701 158.07 99.1001 157.81 98.9101 158ZM97.2501 153.12C95.4601 152.58 94.9401 149.54 95.6001 149.68C96.8171 150.762 98.2632 151.555 99.8301 152C98.9397 152.287 98.0764 152.651 97.2501 153.09V153.12ZM105.53 150.7C105.25 150.7 111.53 148.91 113.32 148.45C117.16 155.32 117.45 160.45 116.99 166.34L110.91 163.19C110.25 157.49 108.47 152.57 105.53 150.67V150.7Z" fill="black"/>
<path d="M43.9403 132.32C45.1803 134.79 50.9403 133.94 50.7503 130.13C50.4903 124.67 41.0503 126.59 43.9403 132.32ZM39.3803 86.2098C39.5303 80.8998 33.1303 81.7198 32.4603 86.9498C32.1103 89.6298 39.2203 91.9298 39.3803 86.2098ZM38.4503 100.49C37.1103 101.78 37.2103 106.09 40.9603 105.99C47.4303 105.83 42.6703 96.4398 38.4503 100.49ZM71.9103 157C73.9103 159.79 78.6003 157.76 77.8103 154.13C76.6903 149 68.6103 152.44 71.9103 157ZM76.3203 113.37C72.2503 113.37 71.7103 118.98 74.6503 120.28C81.6203 123.36 81.9303 113.37 76.3203 113.37ZM102.33 180.79C106.25 183.47 111.33 177 106.93 174.45C102.3 171.74 98.2103 178 102.33 180.79Z" fill="black"/>
</svg>
