<svg width="200" height="200" viewBox="0 0 200 200" fill="none" xmlns="http://www.w3.org/2000/svg">
<path d="M173.318 107.272C171.6 106.951 169.854 106.809 168.107 106.851L173.97 75.0329C174.57 71.7329 175.029 71.4549 171.557 71.2459C137.594 69.1989 117.817 70.9009 117.765 70.0909C117.743 69.7459 116.065 60.4699 115.382 54.8839C115.206 53.4449 114.227 48.5499 113.882 46.8789C113.344 44.2719 113.401 43.6489 112.125 43.6909C101.401 44.0439 74.746 46.7329 60.634 49.0109C36.164 52.9589 36.2661 52.9999 36.4001 54.1059C36.4001 54.1319 37.3211 66.1549 41.8581 90.9949C30.1511 91.2739 30.8581 93.4079 32.5271 118.203C33.3271 130.144 36.3371 154.158 39.0471 166.378C42.792 183.269 44.092 187.022 56.916 187.793C65.289 188.293 138.372 189.142 157.522 186.711C159.346 186.48 160.555 184.031 160.944 182.489C161.444 180.503 162.444 178.42 166.586 160.867C177.611 114.213 180.452 108.819 173.318 107.272ZM168.918 72.7609C172.738 72.8039 172.574 72.7509 172.471 73.2289C172.317 73.9439 157.971 149 154.171 166.844C151.085 148.003 145.451 113.563 144.99 111.67C143.273 104.614 141.465 104.234 136.336 103.676C135.186 103.55 90.975 102.734 90.564 102.707C89.964 102.666 90.079 102.455 90.122 102.246C90.122 102.246 90.213 101.688 90.26 101.446C95.398 75.2099 95.014 73.1649 95.985 73.1279C140.518 71.4429 153.234 72.5819 168.917 72.7609H168.918ZM37.877 54.6999C37.752 54.2499 38.104 54.4559 39.863 54.2519C43.839 53.7919 54.276 52.0139 60.254 51.1089C82.865 47.6879 111.36 44.9209 111.363 44.9469C112.405 44.8469 112.172 44.8259 112.38 46.3779C112.48 47.1359 112.671 48.3089 112.742 48.9529C115.178 71.1739 116.595 70.4429 115.17 70.4529C108.573 70.4948 101.983 70.868 95.424 71.5709C94.01 71.7339 94.07 72.5399 92.754 78.7929C90.17 91.0709 88.923 97.6569 88.448 100.86C88.33 101.66 88.113 102.485 86.767 102.4C83.467 102.192 76.249 102.505 74.326 99.9339C68.436 92.0609 74.404 91.2579 54.831 91.0249C53.57 91.0099 48.263 90.9069 43.756 90.9579C43.567 90.1199 43.356 88.6849 43.036 86.8579C39.554 66.7139 37.876 54.1059 37.877 54.6999ZM165.228 158.235C164.506 162.135 163.088 168.054 162.377 170.802C158.141 187.161 159.765 184.857 150.783 185.423C137.083 186.286 60.53 186.745 54 186.007C45.059 184.996 44.033 180.881 41.189 166.184C39.863 159.332 35.9971 135.446 34.0051 110.075C32.6231 92.4849 33.214 93.5529 38.405 92.9749C43.348 92.4279 49.483 92.9579 56.715 92.9629C57.07 92.9629 64.858 93.3199 65.923 93.4129C67.223 93.5259 67.911 93.6739 68.423 94.2129C70.523 96.4129 72.195 102.682 76.171 103.642C82.581 105.191 121.586 105.198 135.371 105.731C141.811 105.98 142.009 106.607 143.271 113.791C144.742 122.154 144.671 123.633 150.652 157.573C154.115 177.216 154.68 182.098 155.999 181.844C156.704 181.708 156.305 179.614 156.155 178.917C156.125 178.779 155.674 176.043 154.972 171.745C162.364 137.123 161.904 140.205 167.824 108.356C169.405 108.356 170.985 108.442 172.557 108.615C178.139 109.358 175.757 112.79 168.614 144.268C168.733 144.5 165.8 155.129 165.228 158.235Z" fill="black"/>
<path d="M97.8749 88.1999C96.8929 88.0819 96.7749 87.2869 97.3239 86.9189C99.2859 85.5949 137.318 86.7019 143.591 87.7189C145.207 87.9799 144.21 89.1529 141.118 89.1929C135.453 89.2629 103.5 88.8729 97.8749 88.1999Z" fill="black"/>
<path d="M118.527 80.3001C108.255 80.3001 96.1014 81.1941 98.0914 79.2811C99.8404 77.6001 126.174 77.3811 126.62 79.1751C126.72 79.5751 126.713 79.7211 126.371 79.8901C125.093 80.5141 118.527 80.3201 118.527 80.3001Z" fill="black"/>
<path d="M96.5758 96.5868C95.8758 96.1708 96.2889 95.3109 97.7059 95.1219C100.912 94.6959 113.356 95.2648 113.381 95.2658C119.071 95.3658 119.411 95.4738 120.913 96.2968C121.459 96.5968 121.426 97.0879 120.926 97.4399C119.683 98.3139 97.7668 97.2908 96.5758 96.5868Z" fill="black"/>
<path d="M130.765 80.1219C129.819 79.5399 131.399 78.8009 132.474 78.7849C137.069 78.7199 143.84 78.8779 146.405 79.0269C147.147 79.0699 147.92 79.7519 147.464 80.3509C146.941 81.0379 146.41 80.9189 144.208 81.0599C144.193 80.8159 132.35 81.0999 130.765 80.1219Z" fill="black"/>
<path d="M43.6901 59.2248C43.6901 57.8508 43.3151 57.8988 49.3521 56.7908C57.4051 55.3138 64.3001 54.4998 79.1151 52.7498C85.5891 51.9868 84.9631 51.8918 85.4411 53.8418C87.1941 60.9998 89.4321 77.5598 89.4621 77.8218C89.6981 79.8798 89.6351 79.7358 82.7711 80.8658C82.2021 80.9598 66.5711 83.3538 64.6711 83.6298C50.8321 85.6358 47.9441 86.0298 47.5231 84.5398C45.6311 77.8118 43.6911 59.8998 43.6901 59.2248ZM86.4801 68.4118C84.0471 53.7538 84.7141 52.9788 83.6721 53.1428C79.4821 53.7988 68.4771 55.3518 64.8941 55.9308C44.9461 59.1538 50.6171 58.2998 44.9111 59.1518C44.4251 59.2238 45.0211 59.1388 46.5111 70.0278C48.5211 84.6918 48.3431 84.2588 48.7431 84.1278C49.1861 83.9768 49.4531 84.1928 49.7601 83.6648C50.0601 83.1538 51.5061 81.6318 53.0391 79.7968C55.4552 77.0181 58.0224 74.3744 60.7291 71.8778C62.4051 70.2518 62.1441 70.3028 67.5591 73.7998C68.4191 74.3558 68.5721 74.4238 68.4071 74.6358C68.3871 74.6608 64.0321 80.5588 63.8441 81.3498C63.3061 83.6088 69.2441 74.8088 76.9851 65.5858C79.0941 63.0718 78.6421 62.9678 86.2511 68.7038C86.4051 68.8128 86.4801 68.8688 86.4801 68.4118Z" fill="black"/>
<path d="M66.625 63.3639C65.525 63.2359 63.417 63.3639 63.216 61.1949C63.116 60.1159 64.257 58.1949 66.902 58.0169C68.873 57.8839 69.365 58.7619 69.746 58.1529C70.917 56.2799 72.406 56.2929 73.402 57.2269C74.25 58.0269 73.873 58.4049 74.776 58.2959C75.997 58.1489 78.191 57.7429 79.349 58.2379C80.635 58.7889 79.97 60.4719 78.732 61.0189C74.648 62.8239 65.61 63.3639 66.625 63.3639ZM66.434 62.3279C69.6 61.9629 81.581 60.7089 78.891 58.9409C78.291 58.5409 77.313 58.9529 76.138 59.0189C74.182 59.1279 73.922 59.6799 73.601 59.1699C73.3825 58.6256 73.0121 58.1556 72.534 57.8159C71.767 57.3319 70.599 58.0749 70.35 59.1239C70.211 59.7079 70.05 59.9819 69.275 59.6119C67.454 58.7379 65.129 58.8119 64.31 60.9119C64.076 61.5119 64.497 61.7499 64.967 62.0569C65.4222 62.2792 65.9294 62.3729 66.434 62.3279Z" fill="black"/>
<path d="M55.1351 59.8C60.4071 59.473 62.1421 67.036 57.3521 69.428C56.5935 69.8045 55.7502 69.9777 54.9046 69.9306C54.059 69.8834 53.2401 69.6175 52.5281 69.159C51.5756 68.5955 50.8356 67.7337 50.4226 66.707C50.0095 65.6803 49.9466 64.5461 50.2436 63.48C50.5406 62.414 51.1808 61.4756 52.0651 60.8103C52.9494 60.145 54.0285 59.7899 55.1351 59.8ZM58.9751 64.916C58.7111 63.207 58.3391 61.793 56.2851 60.988C53.3941 59.855 50.1931 63.65 52.0051 66.698C52.41 67.4083 53.0371 67.9659 53.7899 68.285C54.5427 68.6041 55.3794 68.667 56.1715 68.4641C56.9635 68.2611 57.6669 67.8035 58.1735 67.1618C58.68 66.52 58.9617 65.7295 58.9751 64.912V64.916Z" fill="black"/>
<path d="M61.331 30.1901C61.9264 28.9138 62.928 27.8709 64.1792 27.2244C65.4304 26.5779 66.8605 26.3643 68.246 26.6171C68.701 26.7021 68.453 26.7571 67.365 23.5691C66.533 21.1281 65.347 17.4371 65.199 16.9991C65.027 16.4931 65.641 16.7621 56.66 19.9431C49.038 22.6431 49.566 22.4191 49.725 22.7661C53.188 30.3581 54.317 33.0441 54.59 34.2291C55.583 38.5501 47.982 42.4451 44.896 38.6351C42.77 36.0101 44.971 32.5141 48.25 31.3781C51.76 30.1611 52.286 34.1551 47.261 22.2581C46.279 19.9331 45.397 18.9291 46.542 18.2701C51.9403 15.5209 57.6067 13.3334 63.452 11.7421C64.771 11.3891 65.075 12.1591 66.004 14.1221C67.517 17.3221 68.431 20.3221 70.664 27.3311C71.332 29.4251 71.803 31.3581 70.322 33.2471C66.524 38.0931 58.968 35.2681 61.331 30.1901Z" fill="black"/>
<path d="M11.0192 143.743C10.9762 143.393 10.1982 138.478 10.1332 135.874C10.0802 133.732 11.0982 133.108 11.4972 133.944C12.8842 136.844 13.2382 139.477 13.9132 142.93C14.0012 143.38 14.0962 143.13 16.9912 142.57C17.2682 142.517 19.0972 142.34 20.0112 142.19C20.6602 142.084 22.5112 142.359 21.8602 143.041C20.4142 144.559 15.2072 146.121 14.8042 146.171C14.3692 146.225 14.5492 146.393 14.8342 148.028C14.9952 148.952 16.4552 156.945 15.5412 157.095C15.3102 157.133 15.0412 157.229 14.8412 156.984C13.4672 155.291 12.3732 151.484 12.0632 149.584C11.3902 145.47 12.5632 147.32 5.78717 147.551C5.62079 147.544 5.45876 147.496 5.31617 147.41C4.50817 146.976 5.42517 145.979 6.24017 145.651C7.70219 144.975 9.22589 144.442 10.7902 144.058C11.0192 144.01 11.0492 143.906 11.0192 143.743Z" fill="black"/>
<path d="M95.6504 20.3781C95.6504 18.7121 100.195 19.8851 100.177 19.0121C100.099 17.888 100.176 16.7585 100.404 15.6551C100.544 14.9701 100.391 14.0211 101.212 13.9941C101.577 13.9821 101.783 14.1251 101.949 14.5451C102.054 14.7935 102.13 15.0537 102.173 15.3201C102.802 20.0341 101.405 19.2591 104.853 19.4121C105.769 19.4438 106.663 19.704 107.453 20.1691C107.992 20.5641 107.016 21.0841 106.563 21.1691C102.555 21.9401 102.571 21.1291 102.577 22.3041C102.695 23.8457 102.554 25.3963 102.159 26.8911C102.006 27.4601 101.374 27.7111 100.981 27.1561C100.541 26.5341 100.725 26.2171 100.42 24.4331C100.089 22.4981 100.586 21.6971 100.04 21.6721C97.5504 21.5601 95.6534 21.5261 95.6504 20.3781Z" fill="black"/>
<path d="M13.9002 60.3149C14.2872 60.3612 14.6606 60.4864 14.9972 60.6829C15.3338 60.8793 15.6265 61.1428 15.8572 61.4569C16.4812 62.1549 16.8435 63.048 16.8822 63.9835C16.9209 64.9189 16.6335 65.8388 16.0692 66.5859C11.3892 72.1979 4.85516 63.5429 10.2692 60.7699C11.4014 60.2397 12.6721 60.0804 13.9002 60.3149ZM12.4552 66.3449C13.0911 66.3451 13.7067 66.1212 14.194 65.7127C14.6814 65.3042 15.0093 64.7371 15.1202 64.1109C15.1572 62.8449 14.9142 61.7259 13.5202 61.5539C11.0052 61.2429 9.82016 62.825 10.3822 64.634C10.6422 65.454 11.5752 66.4329 12.4562 66.3449H12.4552Z" fill="black"/>
<path d="M194.124 50.883C195.37 53.009 195.163 54.904 194.263 56.112C191.11 60.343 185.977 56.092 187.126 52.496C188.154 49.277 193.188 49.285 194.124 50.883ZM190.141 55.819C191.459 56.758 192.913 55.572 193.246 54.397C193.598 53.156 193.015 51.36 192.006 51.34C188.256 51.263 188.014 54.3 190.141 55.819Z" fill="black"/>
<path d="M127.826 19.5761C128.868 13.9191 128.037 14.6161 132.766 15.0031C139.917 15.5891 147.64 16.2961 153.901 17.0361C154.712 17.1361 172.171 19.4971 173.532 19.7871C175.025 20.1051 174.732 19.8801 171.718 45.2481C169.584 63.1961 169.365 63.0481 168.706 63.0481C166.199 63.0621 164.614 62.5481 150.011 60.7891C133.211 58.7651 133.622 59.4531 124.197 57.6891C123.442 57.5481 123.571 56.2951 123.548 54.8581C123.441 48.3061 126.654 25.9321 127.826 19.5761ZM168.426 54.2171C169.216 54.3961 168.46 55.0351 170.877 37.3441C172.072 28.6011 172.204 28.6441 171.952 28.5841C171.011 28.3601 131.84 24.0041 128.991 23.5721C128.576 23.5091 128.744 22.2611 125.916 47.1511C125.68 49.2301 125.523 49.1641 126.216 49.1991C140.087 49.9061 168.523 54.2171 168.421 54.2171H168.426ZM152.1 18.0251C151.521 17.9481 151.242 19.7891 151.043 22.1251C150.857 24.2991 151.086 25.5851 151.292 25.5701C151.8 25.5651 152.925 18.1371 152.1 18.0251ZM147.049 58.4151C147.339 60.4331 147.671 59.4311 148.074 57.4211C148.386 55.8631 148.398 54.0031 148.519 53.0801C148.523 52.7928 148.501 52.5056 148.454 52.2221C148.445 51.9751 147.87 51.7591 147.724 52.5361C147.375 54.4797 147.149 56.4432 147.046 58.4151H147.049ZM168.472 20.4261C168.49 19.9261 167.979 20.0791 167.888 20.2261C167.318 21.1601 166.582 27.1831 167.314 27.1591C167.639 27.1491 167.978 25.3421 168.214 23.7391C168.425 22.6481 168.511 21.5365 168.469 20.4261H168.472ZM164.056 54.1321C163.756 54.5321 163.714 54.3861 163.301 57.2321C163.061 58.376 163.022 59.553 163.187 60.7101C163.193 60.8261 163.356 61.3541 163.542 61.0671C164.11 60.1881 165.229 52.5481 164.053 54.1321H164.056ZM142.7 24.4831C142.72 24.5052 142.744 24.5225 142.771 24.5338C142.798 24.5452 142.828 24.5501 142.857 24.5484C142.886 24.5467 142.915 24.5383 142.941 24.5238C142.966 24.5094 142.988 24.4893 143.005 24.4651C143.187 24.226 143.315 23.9504 143.38 23.6571C143.436 22.7161 144.339 17.3231 143.694 17.1571C142.962 16.9681 142.426 21.1831 142.409 22.7391C142.315 23.3366 142.417 23.9485 142.7 24.4831ZM138.5 56.7741C138.844 58.6391 138.766 58.3641 138.955 58.6081C139.555 57.8891 139.477 55.9081 139.818 53.7441C140.052 52.9927 140.088 52.1937 139.924 51.4241C139.886 51.3181 139.972 51.1601 139.798 51.1141C139.107 50.9341 139.165 51.5001 138.5 56.7741ZM154.467 58.8001C154.606 59.9471 154.618 60.3671 154.785 60.3671C155.63 60.3671 155.625 56.1981 155.785 55.4331C155.921 54.7177 155.91 53.9823 155.754 53.2711C155.694 52.9561 155.136 53.1401 155.022 53.7841C154.989 53.9641 154.467 58.6931 154.467 58.8001ZM158.367 24.7921C158.305 25.9551 158.497 26.7151 158.867 26.3501C159.32 25.8971 159.607 23.8031 159.652 23.1771C159.752 21.8151 160.125 18.6971 159.293 19.2311C158.813 19.5381 158.432 23.6301 158.371 24.7921H158.367ZM130.34 55.4651C130.3 56.0461 130.317 56.6296 130.392 57.2071C130.481 57.4931 130.874 57.4161 130.992 56.8371C131.465 54.8601 131.675 52.8291 131.616 50.7971C131.616 50.1461 130.964 50.2111 130.859 50.8551C130.517 52.3679 130.342 53.914 130.34 55.4651ZM135.574 17.8001C135.503 17.7921 135.494 17.8001 135.516 16.7911C135.527 16.3001 135.055 16.2651 134.872 16.6001C134.698 17.2532 134.57 17.9174 134.487 18.5881C133.561 24.9241 135.07 24.4261 135.287 20.5711C135.321 19.8631 135.573 17.7001 135.574 17.8001Z" fill="black"/>
<path d="M143.574 33.5801C144.195 28.7001 143.941 28.9021 145.24 28.4391C145.824 28.2301 146.291 28.8041 154.249 35.1391C155.918 36.3645 157.438 37.7807 158.778 39.3591C159.443 40.3101 159.085 40.4891 155.122 42.3511C152.99 43.3511 147.215 45.7711 144.314 46.7151C141.7 47.5661 142.056 45.5001 143.574 33.5801ZM145.705 30.0741C145.036 29.3571 145.594 31.1561 144.656 38.0891C143.631 45.6641 143.632 45.6411 143.634 45.6661C144.14 45.6331 143.539 45.4231 156.257 40.3411C156.693 40.1939 157.109 39.9923 157.495 39.7411C157.5 39.8401 148.08 32.6211 145.705 30.0741Z" fill="black"/>
</svg>
