<svg width="200" height="200" viewBox="0 0 200 200" fill="none" xmlns="http://www.w3.org/2000/svg">
<path d="M115.06 40.5202C116.76 40.4702 117.06 38.3902 116.06 37.2502C115.86 37.062 115.624 36.9169 115.366 36.824C115.107 36.731 114.833 36.6923 114.559 36.7101C114.285 36.7279 114.018 36.802 113.774 36.9276C113.53 37.0532 113.314 37.2277 113.14 37.4402C111.93 38.8702 112.73 41.0002 115.06 40.5202ZM115.58 37.9602C116.16 38.7002 116.13 39.9602 115.02 40.1802C114.13 40.1802 113.37 39.8802 113.37 38.9902C113.38 37.7502 114.81 37.0002 115.58 38.0002V37.9602ZM123.4 40.3402C125.1 40.2902 125.4 38.2102 124.4 37.0702C124.205 36.8733 123.97 36.7206 123.71 36.6223C123.451 36.5241 123.174 36.4825 122.897 36.5006C122.62 36.5186 122.351 36.5957 122.106 36.7267C121.862 36.8578 121.648 37.0397 121.48 37.2602C120.28 38.6802 121.06 40.8202 123.4 40.3402ZM123.92 37.7802C124.5 38.5202 124.46 39.7802 123.36 40.0002C122.47 40.0002 121.71 39.7002 121.71 38.8102C121.71 37.5702 123.15 36.7902 123.92 37.7802Z" fill="black"/>
<path d="M129.24 51.0602C157.87 48.7202 149.12 18.4302 123.79 19.0602C95.3304 19.8502 86.7804 54.5402 129.24 51.0602ZM105.51 27.0002C113.61 19.0002 129.76 17.1202 139.51 24.6002C150.44 32.9402 149.22 49.0802 129.17 50.7102C118.28 51.5902 110.82 49.7802 106.27 46.7702C98.7804 41.8102 99.2304 33.2302 105.51 27.0002Z" fill="black"/>
<path d="M131.13 40C132.83 40 133.18 37.87 132.13 36.73C131.93 36.5418 131.694 36.3967 131.436 36.3038C131.177 36.2109 130.903 36.1722 130.629 36.19C130.355 36.2078 130.088 36.2818 129.844 36.4074C129.6 36.533 129.384 36.7075 129.21 36.92C128 38.36 128.82 40.48 131.13 40ZM131.65 37.44C132.23 38.18 132.19 39.44 131.09 39.67C130.21 39.67 129.44 39.3601 129.44 38.4701C129.45 37.2401 130.88 36.45 131.65 37.44ZM97.2802 108.79C97.8702 108.48 99.1602 107.14 98.9602 106.51C99.3402 105.51 105.23 86.7 106.85 80.63C107.095 79.9925 107.211 79.3127 107.19 78.63C107.08 78.41 106.9 78.39 106.68 78.38L87.6202 78.68C87.3102 64.29 85.9002 23.87 84.3002 10.58C84.5802 10.58 84.8902 10.58 84.9802 10.24C85.3202 9.00005 85.6102 6.79005 84.6502 5.95005C82.3102 3.90005 7.15023 5.75005 6.19023 6.10005C5.23023 6.45005 5.19023 9.26005 5.37023 10.46C5.37023 10.75 5.86023 10.86 6.14023 10.93C4.34023 22.42 6.05023 102.13 7.63023 109.01C7.71023 109.35 7.82023 109.68 8.11023 109.75C8.76784 109.907 9.43643 110.014 10.1102 110.07C11.1902 118.48 18.5702 120.07 27.0502 118.72C35.011 117.372 42.5809 114.3 49.2302 109.72C55.5002 109.5 48.9302 109.78 60.6202 109.83C64.1302 109.81 95.6002 109.7 97.2802 108.79ZM50.1102 103.32C52.1102 103.32 54.6502 103.58 56.1102 105.07C56.3902 105.36 57.1102 106.23 56.7602 106.41C55.8402 106.9 51.2302 106.73 49.9802 106.75L50.1102 103.32ZM49.9202 107.08L51.3602 107.23C51.3761 107.778 51.5346 108.312 51.8202 108.78L49.8202 108.85L49.9202 107.08ZM106.33 79.24C105.65 82.36 99.2102 103.32 98.3302 106.05C90.6402 105.73 79.1402 106.17 63.5902 106.6C64.2802 104.27 70.8002 82 71.5902 79.83C71.6402 79.73 106.23 79.24 106.33 79.24ZM5.76023 10.38C5.51023 8.71005 5.91023 6.57005 6.31023 6.38005C6.88023 6.17005 80.5602 5.04005 84.1102 6.58005C84.3574 6.92226 84.4808 7.33839 84.4602 7.76005C84.4875 8.43397 84.4134 9.10817 84.2402 9.76005C84.1502 9.76005 27.9002 11.13 21.2402 11.12C19.5402 11.12 7.00023 11.16 5.76023 10.38ZM10.1802 34.49C10.1202 33.96 10.0602 32.34 10.0102 30.19C12.1202 30.92 23.6102 30.94 25.8502 30.94C27.4802 30.94 56.0202 30.3 60.6602 30.11C62.2902 30.05 78.6602 29.23 80.3302 29.03C80.3615 30.4112 80.3215 31.793 80.2102 33.17C80.1502 33.17 36.6202 34.86 31.0102 34.97C29.0002 35 11.9402 35.39 10.1802 34.49ZM80.2402 23.77C31.6202 24.87 11.7102 25.54 9.94023 24.77V19.39C13.9402 20.39 50.1302 19.53 53.2802 19.45C56.6802 19.35 77.9102 18.45 80.0802 18.3C80.1302 20.09 80.2002 22 80.2402 23.77ZM9.94023 25.17C13.3002 26.28 51.1402 25.33 53.4102 25.26C56.8302 25.17 78.4102 24.21 80.2502 24.12C80.2502 25.75 80.3202 27.31 80.3302 28.69C48.0002 29.51 12.6202 31 10.0002 29.83C10.0002 28.43 10.0002 26.84 9.94023 25.17ZM80.0002 18C45.1602 18.79 12.0002 19.78 9.88023 19.08V14.53C13.7502 15.59 50.5202 14.68 53.2602 14.6C56.5302 14.51 76.2602 13.6 79.7202 13.47C79.8902 14.75 80.0002 16.31 80.0002 18ZM79.7402 13.12C37.8802 14.12 11.8002 14.88 9.93023 14.19C9.93023 13.4 9.93023 12.19 10.0502 11.38C24.2802 12.25 55.8602 11.29 79.5402 10.74C79.6602 11.4 79.7302 12.43 79.7802 13.11L79.7402 13.12ZM8.45023 109C6.93023 104.22 4.78023 22.73 6.45023 11C7.53351 11.1727 8.62495 11.2895 9.72023 11.35C9.38023 15.22 9.38023 33 9.61023 34.64C9.62781 34.7168 9.66199 34.7889 9.71036 34.8511C9.75873 34.9132 9.82012 34.9641 9.89023 35C10.7597 35.2864 11.6654 35.448 12.5802 35.48C12.3519 38.9615 12.449 42.4566 12.8702 45.92C9.66023 46.3 9.36023 51.25 13.6902 50.48C16.8002 50.35 16.1202 45.9501 13.2502 45.9001C13.4752 42.4342 13.3647 38.9547 12.9202 35.51C16.5902 35.78 23.2602 35.82 31.0302 35.72C36.6402 35.64 79.3602 34.08 80.1002 34.02C80.4902 34.02 80.8702 34.02 80.9702 33.66C81.6002 31.34 80.7202 13.28 80.4102 10.71L83.5602 10.63C85.1202 23.9 86.4502 63.26 86.7802 78.71C83.6302 78.76 72.0102 78.92 71.2902 79.11C71.0902 79.17 71.0202 79.32 70.9202 79.58C70.5702 80.51 69.8002 83.18 69.5202 84.14C64.8586 80.3873 59.5471 77.5231 53.8502 75.69C53.9505 75.1203 54.0807 74.5561 54.2402 74C55.4314 73.9566 56.5903 73.6012 57.6011 72.9694C58.6119 72.3377 59.4392 71.4517 60.0002 70.4C61.2102 68.4 62.0002 65.25 61.9202 60.3C62.0029 60.3247 62.0906 60.3275 62.1747 60.3082C62.2588 60.289 62.3365 60.2482 62.4002 60.19C62.7896 59.8785 63.1271 59.5072 63.4002 59.09C63.8902 57.2431 63.7458 55.2851 62.9902 53.53C62.2102 51.23 61.8602 49.6501 59.9902 47.6301C58.5372 46.0247 56.5984 44.9393 54.4702 44.5401C52.5904 44.3735 50.6959 44.512 48.8602 44.9501C48.0354 45.1955 47.265 45.596 46.5902 46.1301C46.1808 46.4758 45.8414 46.8967 45.5902 47.37C45.1002 48.05 43.9502 48.1 43.0602 48.53C41.2492 49.7026 39.905 51.4712 39.2602 53.53C38.8111 54.8165 38.5747 56.1675 38.5602 57.53C37.8202 56.71 36.6502 55.75 35.6602 56.23C34.6702 56.71 33.7402 60 33.7502 61.6C33.7602 63.2 34.3702 63.19 35.8302 63.19C35.1649 63.7473 34.6118 64.426 34.2002 65.1901C33.5202 66.2601 33.5502 66.3301 32.4302 66.7901C31.8602 67.0301 31.3402 67.13 31.3402 67.56C31.3386 67.6467 31.3637 67.7317 31.4123 67.8035C31.4609 67.8753 31.5305 67.9303 31.6115 67.9609C31.6926 67.9916 31.7811 67.9964 31.865 67.9748C31.949 67.9532 32.0241 67.9061 32.0802 67.84L32.7502 67.57C33.2311 67.4292 33.6745 67.1828 34.0482 66.849C34.4218 66.5151 34.7163 66.1021 34.9102 65.64C35.7502 64.32 36.3302 63.51 37.9102 63.18C37.072 63.7552 36.382 64.521 35.897 65.4145C35.412 66.308 35.1458 67.3037 35.1202 68.32C33.6402 69.38 31.4502 71.21 30.6802 72.85C29.9102 74.49 29.4202 76.95 30.8002 77.78C23.7709 81.1637 18.1487 86.9026 14.9102 94C12.1702 98.4 9.65023 104.1 10.0202 109.31C9.4913 109.237 8.96707 109.134 8.45023 109ZM13.1502 46.7001C13.5892 46.691 14.017 46.8392 14.3563 47.118C14.6956 47.3967 14.924 47.7876 15.0002 48.2201C15.3102 49.5801 14.1302 50.6001 12.2902 49.9701C10.4502 49.3401 11.2702 46.8 13.1502 46.73V46.7001ZM38.4602 58.91C38.6637 59.8987 39.1067 60.8224 39.7502 61.6C39.7596 61.6998 39.7596 61.8003 39.7502 61.9001C38.1124 62.2797 36.4249 62.3978 34.7502 62.25C34.6083 61.8734 34.5771 61.4639 34.6602 61.07C34.7613 59.6413 35.1743 58.252 35.8702 57C36.6002 56.63 38.0002 58.2 38.4602 58.91ZM40.3202 76C43.4502 76.12 43.5502 72.29 44.1802 72C44.9065 71.552 45.4773 70.8914 45.8154 70.1079C46.1535 69.3244 46.2425 68.4558 46.0702 67.6201C46.0702 67.4401 44.8902 64.99 44.7502 64.56C44.3202 63.28 43.1002 62.03 44.2702 60.85C45.0002 60 45.6802 61 46.1602 62C46.1873 62.0707 46.2317 62.1334 46.2894 62.1823C46.347 62.2313 46.4161 62.2649 46.4902 62.28C47.1602 62.4 48.0202 60.8901 48.7002 60.5601C49.9024 60.0909 51.0127 59.414 51.9802 58.5601C52.7102 57.8401 53.2102 56.37 54.0402 55.96C55.5808 55.3484 57.1653 54.8536 58.7802 54.48C59.1302 55.6 58.5502 55.73 61.1102 59.18C61.2602 59.38 61.3702 59.68 61.5102 59.92C61.5148 60.0033 61.5148 60.0868 61.5102 60.17C61.6602 65.09 60.7102 68.17 59.5102 70.17C58.9641 71.1457 58.1628 71.9544 57.1921 72.5093C56.2215 73.0642 55.1181 73.3445 54.0002 73.32C53.9259 73.3144 53.8518 73.334 53.7901 73.3757C53.7284 73.4175 53.6826 73.4789 53.6602 73.55C53.6602 73.55 53.3102 74.76 53.1802 75.46C53.0202 76.31 53.1802 76.25 54.0202 76.56C56.1102 77.2545 58.143 78.1104 60.1002 79.12C59.0754 82.101 57.5761 84.8969 55.6602 87.4C55.2402 87.91 54.0602 89.98 53.2602 89.72C51.3702 89.08 40.9302 79.54 38.2602 76.48L38.0002 76.19C38.7692 76.0817 39.5439 76.0183 40.3202 76ZM17.7402 90.41C17.7109 90.4193 17.6795 90.4193 17.6502 90.41C17.6749 90.4331 17.7066 90.4472 17.7402 90.45V90.41ZM26.9102 117.86C21.7902 118.66 15.0802 118.64 12.3402 114.25C8.22023 107.69 12.4902 97.95 16.9202 91.6C17.1102 91.32 17.6002 90.6 17.8202 90.38C22.2619 83.4588 29.1441 78.4613 37.1002 76.38C38.5102 78.38 50.6802 89.73 53.0302 90.52C54.4802 91 55.6002 88.84 56.3302 87.92C58.3006 85.3425 59.8313 82.4569 60.8602 79.38C63.8709 80.8796 66.7108 82.7002 69.3302 84.81C68.1861 88.7604 67.076 92.7205 66.0002 96.69C65.7703 95.1117 65.3016 93.5775 64.6102 92.14C64.5927 92.1017 64.5615 92.0712 64.5227 92.0545C64.4839 92.0379 64.4403 92.0362 64.4003 92.05C64.3604 92.0637 64.327 92.0918 64.3067 92.1288C64.2863 92.1657 64.2805 92.209 64.2902 92.25C64.3972 93.4917 64.6352 94.7185 65.0002 95.91C65.1768 96.5227 65.4077 97.1184 65.6902 97.69C64.4402 102.17 63.3902 105.95 63.2002 106.62C56.7402 106.81 57.3802 106.83 57.4402 106.73C57.8502 106.05 57.1402 105.12 56.5902 104.56C55.9373 103.97 55.1721 103.519 54.3404 103.232C53.5088 102.945 52.6278 102.829 51.7502 102.89C51.2087 102.891 50.6677 102.924 50.1302 102.99L50.1902 101.81C50.195 101.726 50.1722 101.642 50.1254 101.572C50.0785 101.501 50.01 101.448 49.9302 101.42C45.1802 99.75 37.7402 98.24 32.0002 98.59C32.8999 95.8951 33.4477 93.0953 33.6302 90.26C33.6337 90.2188 33.622 90.1777 33.5973 90.1444C33.5726 90.1112 33.5366 90.0881 33.4961 90.0795C33.4556 90.0709 33.4133 90.0774 33.3773 90.0977C33.3412 90.1181 33.3138 90.1509 33.3002 90.19C32.4175 92.9221 31.8571 95.7479 31.6302 98.61C28.669 98.7093 25.7971 99.6492 23.3502 101.32C23.3348 101.335 23.3225 101.353 23.3142 101.373C23.3058 101.392 23.3015 101.414 23.3015 101.435C23.3015 101.457 23.3058 101.478 23.3142 101.497C23.3225 101.517 23.3348 101.535 23.3502 101.55C23.7502 102.09 25.3502 98.94 33.8202 99.08C39.1199 99.3347 44.3561 100.345 49.3702 102.08L49.0002 108.83C42.3954 113.445 34.852 116.542 26.9102 117.9V117.86Z" fill="black"/>
<path d="M83.6 95.6504C85.7205 95.8055 87.8495 95.8055 89.97 95.6504C90.0274 95.6464 90.0833 95.6298 90.1335 95.6018C90.1838 95.5737 90.2272 95.5348 90.2606 95.488C90.2941 95.4411 90.3168 95.3875 90.327 95.3308C90.3373 95.2742 90.3349 95.216 90.32 95.1604C90.24 94.2404 88.38 91.5204 87.7 90.8104C87.36 90.4504 87.26 90.4604 86.91 90.8104C85.6252 92.0691 84.494 93.4756 83.54 95.0004C83.42 95.2604 83.38 95.5104 83.6 95.6504ZM87.28 90.8104C87.7425 91.3272 88.1358 91.9021 88.45 92.5204C88.9347 93.3403 89.356 94.1961 89.71 95.0804C88.81 95.0804 85.15 95.1904 84.14 95.0804C85.0915 93.5894 86.1404 92.163 87.28 90.8104ZM95 55.5604C96.6077 55.426 98.1392 54.8168 99.4 53.8104C100.689 52.9199 101.819 51.8176 102.74 50.5504C102.96 50.2104 102.47 50.1304 102.46 50.3904C100.864 51.7585 99.1732 53.0116 97.4 54.1404C96.643 54.6258 95.8216 55.0028 94.96 55.2604C94.9343 55.2782 94.914 55.3028 94.9013 55.3314C94.8886 55.36 94.8841 55.3916 94.8883 55.4226C94.8924 55.4536 94.905 55.4829 94.9247 55.5072C94.9445 55.5315 94.9705 55.5499 95 55.5604ZM102.45 50.4104C102.459 50.4652 102.487 50.5149 102.53 50.5504C102.503 50.5385 102.48 50.5189 102.464 50.494C102.448 50.4691 102.44 50.44 102.44 50.4104H102.45ZM55.33 67.6504C55.3174 67.6928 55.3218 67.7385 55.3424 67.7777C55.3629 67.8169 55.3979 67.8466 55.44 67.8604C55.68 67.9804 56.03 68.1804 56.44 68.3304C57.19 68.6304 57.94 68.6204 58.18 67.8504C58.3053 67.0653 58.3053 66.2654 58.18 65.4804C58.0924 64.7271 57.9213 63.9859 57.67 63.2704C57.662 63.2253 57.6365 63.1852 57.599 63.159C57.5615 63.1327 57.5151 63.1224 57.47 63.1304C57.4249 63.1383 57.3848 63.1639 57.3586 63.2014C57.3323 63.2389 57.322 63.2853 57.33 63.3304V64.8904C57.4119 65.8019 57.4119 66.7189 57.33 67.6304C57.33 67.7204 57.23 67.7404 57.15 67.7504C56.27 67.8404 55.43 67.3404 55.33 67.6504ZM54.76 63.5904C54.7644 63.4045 54.7913 63.2198 54.84 63.0404C54.8669 62.9918 54.884 62.9384 54.8903 62.8832C54.8966 62.828 54.8919 62.7721 54.8766 62.7187C54.8613 62.6653 54.8356 62.6155 54.801 62.572C54.7664 62.5285 54.7236 62.4923 54.675 62.4654C54.6264 62.4385 54.573 62.4214 54.5178 62.4151C54.4626 62.4088 54.4067 62.4135 54.3533 62.4288C54.2999 62.4441 54.2501 62.4698 54.2066 62.5044C54.1631 62.539 54.1269 62.5818 54.1 62.6304C53.9693 62.9473 53.9046 63.2876 53.91 63.6304C53.9297 63.7317 53.9853 63.8226 54.0665 63.8864C54.1477 63.9501 54.2491 63.9826 54.3523 63.9777C54.4554 63.9729 54.5534 63.9311 54.6282 63.8599C54.7031 63.7888 54.7499 63.6931 54.76 63.5904ZM60.32 63.5804C60.3301 63.5046 60.3188 63.4275 60.2874 63.3578C60.256 63.2881 60.2057 63.2286 60.1423 63.186C60.0789 63.1433 60.0048 63.1193 59.9284 63.1165C59.852 63.1138 59.7763 63.1324 59.71 63.1704C59.34 63.3604 59.5 63.8704 59.5 64.1704C59.5 64.2818 59.5442 64.3886 59.623 64.4674C59.7018 64.5461 59.8086 64.5904 59.92 64.5904C60.0314 64.5904 60.1382 64.5461 60.217 64.4674C60.2957 64.3886 60.34 64.2818 60.34 64.1704C60.3234 63.9742 60.3167 63.7773 60.32 63.5804ZM53.49 60.4204C53.9279 60.3674 54.3718 60.3946 54.8 60.5004C55.8 60.6904 55.8 60.8504 55.89 60.6904C55.98 60.5304 55.36 59.9304 55.05 59.7804C54.5188 59.5607 53.9357 59.4982 53.37 59.6004C52.77 59.7104 51.9 60.2604 52.02 60.4904C52.14 60.7204 52.14 60.5304 53.49 60.4204ZM59.94 61.3204L60.26 61.4304C60.36 61.4304 60.99 61.5904 61.06 61.5004C61.13 61.4104 60.8 60.8204 60.53 60.6604C59.68 60.1604 58.86 60.7504 58.99 61.0204C59.3007 61.1383 59.6179 61.2384 59.94 61.3204ZM55.65 70.4404C55.3995 70.3974 55.159 70.3093 54.94 70.1804C54.67 70.047 54.4208 69.8752 54.2 69.6704C53.81 69.3404 53.41 69.0304 53.33 68.9404C53.3063 68.9078 53.2719 68.8847 53.2328 68.8751C53.1937 68.8656 53.1524 68.8702 53.1164 68.8882C53.0804 68.9062 53.052 68.9364 53.0361 68.9735C53.0203 69.0105 53.0181 69.0519 53.03 69.0904C53.25 70.4204 54.66 71.3504 55.73 70.7704C56 70.7304 55.87 70.3904 55.65 70.4404ZM191.2 95.0004C191.47 95.0004 191.79 95.0004 191.88 94.6604C192.22 93.4304 192.51 91.2104 191.55 90.3704C189.18 88.3104 114.04 90.1604 113.09 90.5104C112.14 90.8604 112.09 93.6604 112.27 94.8604C112.27 95.1504 112.76 95.2704 113.04 95.3404C111.58 104.67 112.57 150.89 112.85 161.02C110.36 159.31 103.3 154.74 100.33 154.26C99.78 154.18 100.33 151.99 98.9 151.26C98.6949 151.156 98.4575 151.136 98.2375 151.203C98.0175 151.27 97.8321 151.42 97.72 151.62C97.401 152.15 97.1427 152.713 96.95 153.3C96.72 153.5 95.88 153.43 95.58 153.4C93.4 153.17 91.07 152.4 90.45 153.55C90.3381 153.79 90.302 154.059 90.3467 154.319C90.3914 154.58 90.5146 154.821 90.7 155.01C91.77 156.01 96.1 157.23 97.24 157.71C98.24 159.64 103.89 174.64 113.57 181.12C113.63 182.45 114.09 193.21 114.76 194C115.65 195 130.15 194.73 131.37 194.84C139.37 195.51 173.5 193.35 193.43 192.84C193.62 192.84 193.89 192.69 194.05 192.25C196.21 186.09 192.82 108.52 191.2 95.0004ZM112.65 94.7804C112.41 93.1104 112.8 90.9704 113.2 90.7804C113.6 90.5904 187.2 89.4204 191 90.9804C191.249 91.3215 191.373 91.7384 191.35 92.1604C191.377 92.8337 191.306 93.5073 191.14 94.1604C191.05 94.1604 134.8 95.5304 128.14 95.5204C126.63 95.5604 113.84 95.6004 112.65 94.8204V94.7804ZM182.11 167.67C184.11 171.25 186.77 179.67 187.93 183.62C184.45 183.93 171.17 185.23 169 185.7C168.9 185.7 169 185.87 168.6 183.7C168.38 182.49 167.42 178.57 167.37 178.37C166.88 176.48 166.66 175.92 166.37 174.86C166.356 174.821 166.329 174.788 166.293 174.768C166.257 174.748 166.215 174.741 166.174 174.75C166.134 174.758 166.098 174.782 166.073 174.815C166.048 174.848 166.037 174.889 166.04 174.93C166.16 175.93 166.29 177.09 166.49 178.11C166.49 178.21 169.84 192.83 169.87 192.93C166.71 193.08 133.57 194.76 130.64 194.03C130.93 190.8 131.31 187.95 131.7 185.55C131.7 185.45 135.47 166.06 135.52 165.83C135.53 165.789 135.524 165.746 135.504 165.709C135.483 165.672 135.45 165.644 135.41 165.63C135.37 165.617 135.326 165.618 135.288 165.635C135.249 165.651 135.218 165.682 135.2 165.72C133.902 169.095 133.159 172.658 133 176.27C131.67 174.8 120.71 162.66 120 161.37C123.769 158.085 127.993 155.36 132.54 153.28C136.79 151.293 141.337 150.016 146 149.5C145.449 149.859 144.99 150.342 144.66 150.91C144.29 151.74 145.2 153 146.08 153.32C151.93 155.46 156.71 154 159.36 151.01C159.94 150.36 159.91 150.22 159.93 149.84C169.63 152.53 176.8 158 182.11 167.71V167.67ZM170.6 192.59C170.1 190.59 169.92 189.19 169.39 186.52C169.71 186.47 186.18 184.52 188.11 184.29C188.909 186.798 189.505 189.367 189.89 191.97C187.28 192.1 173.18 192.94 170.6 192.59ZM146.1 138.26C146.971 135.185 148.321 132.266 150.1 129.61C151.79 130.09 153.58 130.09 155.27 129.61C155.13 130.27 155.82 130.61 156.47 130.83C156.322 131.064 156.222 131.325 156.175 131.598C156.129 131.871 156.137 132.151 156.2 132.42C156.243 132.673 156.344 132.911 156.495 133.118C156.646 133.324 156.843 133.493 157.07 133.61C157.403 133.774 157.761 133.879 158.13 133.92C157.941 134.263 157.842 134.649 157.842 135.04C157.842 135.432 157.941 135.817 158.13 136.16C158.311 136.444 158.554 136.684 158.84 136.86C158.669 137.019 158.521 137.201 158.4 137.4C157.78 138.62 157.45 140.68 158.76 141.13C158.981 141.196 159.22 141.172 159.424 141.064C159.628 140.955 159.781 140.771 159.85 140.55C160.26 139.68 160.99 139.38 161.36 140.23C161.84 141.32 159.92 142.37 159.41 143.23C159.17 143.62 158.7 144.1 158.98 144.67C159.09 144.9 159.05 144.67 159.06 145.19C159.16 150.32 159.32 149.83 158.75 150.47C156.31 153.19 151.86 154.55 146.36 152.53C146.113 152.42 145.895 152.254 145.721 152.046C145.548 151.838 145.424 151.593 145.36 151.33C145.36 151.25 145.41 151.18 145.48 151.09C146.111 150.416 146.831 149.831 147.62 149.35C147.93 149.12 148 148.97 148.17 148.35C148.34 147.73 148.4 147.15 148.52 146.79C149.08 145.12 144.45 145.18 146.1 138.26ZM155.93 118.8C155.448 118.527 154.899 118.392 154.344 118.411C153.79 118.431 153.252 118.604 152.79 118.91C149.86 119.02 119.65 120.26 117.08 118.91C117.01 118.38 116.95 116.77 116.91 114.61C119.02 115.35 130.51 115.36 132.75 115.37C134.37 115.37 162.91 114.73 167.56 114.54C169.63 114.45 186.77 113.54 187.23 113.45C187.26 114.832 187.216 116.214 187.1 117.59C187.1 117.59 170.05 118.28 155.93 118.8ZM187.14 108.22C139.33 109.3 118.62 109.98 116.83 109.22V103.84C120.83 104.84 157.02 103.99 160.18 103.9C163.58 103.8 184.8 102.9 186.97 102.76C187 104.54 187.09 106.41 187.14 108.22ZM116.84 109.62C120.19 110.72 158.01 109.77 160.3 109.71C163.73 109.61 185.3 108.65 187.15 108.56C187.15 110.19 187.22 111.76 187.23 113.13C158 113.91 119.54 115.48 116.9 114.27C116.87 112.88 116.85 111.28 116.84 109.62ZM186.94 102.43C148.59 103.3 118.94 104.21 116.81 103.52V98.9704C120.67 100.03 157.44 99.1104 160.19 99.0304C162.78 98.9604 184.19 98.1004 186.65 97.9204C186.78 99.2104 186.87 100.76 186.94 102.43ZM186.68 97.5504C148.08 98.4304 118.82 99.3404 116.87 98.6204C116.87 97.8304 116.87 96.6204 116.99 95.8104C131.21 96.6804 162.89 95.7204 186.47 95.1704C186.55 95.8604 186.63 96.8704 186.68 97.5504ZM113.37 95.4504C114.453 95.6197 115.545 95.7332 116.64 95.7904C116.27 99.6804 116.28 117.43 116.51 119.08C116.522 119.159 116.554 119.234 116.603 119.297C116.652 119.36 116.717 119.409 116.79 119.44C117.655 119.731 118.558 119.896 119.47 119.93C119.227 123.408 119.328 126.902 119.77 130.36C116.56 130.75 116.25 135.69 120.58 134.93C123.68 134.79 123.04 130.39 120.14 130.34C120.371 126.875 120.26 123.395 119.81 119.95C127 120.48 140.48 120.11 147.69 119.88C147.21 120.177 146.784 120.552 146.43 120.99C144.77 122.91 146.23 126.36 147.92 128.22C148.36 128.702 148.89 129.092 149.48 129.37C146.48 133.78 142.85 141.31 146.48 145.24C146.944 145.628 147.372 146.057 147.76 146.52C147.6 147.04 147.44 148.14 147.24 148.62C146.97 148.81 147.04 148.78 146.9 148.79C141.822 149.262 136.868 150.633 132.27 152.84C127.656 154.983 123.389 157.805 119.61 161.21C119.48 161.34 119.51 161.47 120.98 163.21L118.1 165.12C116.699 163.776 115.18 162.561 113.56 161.49C113.22 151.2 112 104.91 113.37 95.4504ZM120.05 131.18C120.481 131.17 120.901 131.314 121.236 131.585C121.572 131.856 121.8 132.237 121.88 132.66C122.2 134.02 121.02 135.05 119.18 134.41C117.34 133.77 118.17 131.24 120.05 131.18ZM103.91 169.12C101.668 165.396 99.709 161.509 98.05 157.49C97.89 157.16 97.87 157.09 97.22 156.85C95.2602 156.269 93.3506 155.53 91.51 154.64C91.3994 154.571 91.2985 154.487 91.21 154.39C91.07 153.97 91.21 153.91 91.5 153.85C92.81 153.62 95.5 154.52 96.86 154.23C97.0729 154.217 97.2761 154.137 97.4398 154C97.6035 153.863 97.7192 153.678 97.77 153.47C97.84 153.29 98.3 151.89 98.55 152.01C99.62 152.55 98.79 154.84 100.22 155.06C103.63 155.55 115.95 163.32 117.89 165.58C117.927 165.617 117.978 165.638 118.03 165.638C118.082 165.638 118.133 165.617 118.17 165.58L121.17 163.49C123.92 166.83 130.1 173.85 132.91 177.02C132.69 177.78 127.33 182.91 124.64 183.32C115.75 184.69 108.65 176.82 103.91 169.12ZM115.35 193.48C114.87 192.01 114.42 183.22 114.35 181.66C117.422 183.662 121.127 184.457 124.75 183.89C127.11 183.49 131.07 179.89 132.67 177.99C131.371 183.25 130.462 188.597 129.95 193.99C122.85 194.12 117.62 194 115.35 193.48ZM193.23 192.07L190.74 192.14C190.91 189.51 185.6 172.34 182.84 167.31C177.42 157.46 170.11 151.81 159.93 149.08C159.93 148.29 159.93 147.47 159.8 145.26C159.978 145.261 160.155 145.223 160.317 145.149C160.48 145.075 160.624 144.966 160.74 144.83C161.076 145.092 161.471 145.267 161.89 145.34C163.44 145.61 165.95 144.08 165.76 142.76C166.562 142.782 167.352 142.555 168.02 142.11C169.17 141.39 170.51 139.85 170.34 138.58C170.17 137.31 169.77 138.05 170.75 137.42C171.709 136.751 172.386 135.75 172.65 134.61C172.77 133.874 172.743 133.122 172.571 132.396C172.4 131.67 172.087 130.985 171.65 130.38C171.495 130.168 171.287 130 171.046 129.895C170.806 129.789 170.541 129.75 170.28 129.78C170.18 129.78 170.2 129.85 170.52 129.23C170.62 129.063 170.691 128.881 170.73 128.69C170.777 128.019 170.675 127.345 170.431 126.718C170.187 126.09 169.808 125.524 169.32 125.06C169.025 124.753 168.644 124.54 168.228 124.449C167.811 124.359 167.377 124.394 166.98 124.55C166.98 124.55 166.54 124.74 166.4 124.78C166.4 124.42 166.45 123.92 166.4 123.78C166.329 123.243 166.134 122.729 165.83 122.279C165.526 121.83 165.122 121.457 164.65 121.19C163.512 120.761 162.258 120.761 161.12 121.19C160.825 120.44 160.272 119.82 159.56 119.44C160.21 119.44 186.76 118.44 187.42 118.44C187.509 118.436 187.595 118.403 187.664 118.348C187.734 118.292 187.785 118.216 187.81 118.13C188.4 115.99 187.65 98.4704 187.26 95.1304L190.41 95.0504C192.28 110.58 195.13 186.21 193.23 192.07Z" fill="black"/>
<path d="M149.1 134.571L149.56 133.921C149.624 133.829 149.648 133.716 149.629 133.606C149.609 133.497 149.547 133.399 149.455 133.336C149.364 133.272 149.251 133.247 149.141 133.267C149.031 133.287 148.934 133.349 148.87 133.441L148.4 134.091C148.336 134.183 148.312 134.298 148.333 134.408C148.354 134.519 148.417 134.617 148.51 134.681C148.603 134.744 148.717 134.768 148.828 134.748C148.939 134.727 149.036 134.663 149.1 134.571ZM149.71 139.141C149.89 139.271 150.08 138.991 149.89 138.861C149.28 138.311 148.97 138.031 148.83 137.861C148.69 137.691 148.77 137.731 148.83 137.621C149.02 137.171 149.83 136.191 151.06 134.321C151.089 134.286 151.104 134.241 151.1 134.196C151.096 134.151 151.075 134.11 151.04 134.081C151.006 134.051 150.961 134.037 150.916 134.041C150.871 134.045 150.829 134.066 150.8 134.101C150.109 134.648 149.482 135.272 148.93 135.961C147.32 138.001 147.84 138.261 149.71 139.141ZM152.64 136.661C152.73 136.441 152.91 136.151 153.02 135.911C153.043 135.86 153.056 135.805 153.058 135.75C153.06 135.694 153.051 135.639 153.031 135.587C153.012 135.535 152.982 135.487 152.944 135.447C152.906 135.406 152.861 135.374 152.81 135.351C152.76 135.328 152.705 135.315 152.649 135.313C152.594 135.311 152.539 135.32 152.487 135.34C152.435 135.359 152.387 135.389 152.346 135.427C152.306 135.464 152.273 135.51 152.25 135.561C152.15 135.781 151.98 136.051 151.86 136.341C151.839 136.392 151.828 136.447 151.829 136.502C151.829 136.557 151.84 136.612 151.861 136.663C151.883 136.714 151.914 136.761 151.953 136.8C151.992 136.839 152.039 136.87 152.09 136.891C152.141 136.912 152.196 136.922 152.252 136.922C152.307 136.922 152.362 136.911 152.413 136.889C152.464 136.868 152.51 136.837 152.549 136.798C152.588 136.758 152.619 136.712 152.64 136.661ZM149.28 142.621C149.59 142.67 149.907 142.646 150.206 142.551C150.504 142.455 150.777 142.291 151 142.071C151.202 141.838 151.337 141.554 151.39 141.251C151.407 141.231 151.42 141.209 151.427 141.184C151.434 141.16 151.436 141.134 151.431 141.109C151.427 141.083 151.417 141.059 151.402 141.039C151.387 141.018 151.368 141 151.346 140.988C151.323 140.976 151.298 140.969 151.273 140.967C151.247 140.966 151.222 140.97 151.198 140.98C151.175 140.99 151.153 141.005 151.137 141.024C151.12 141.043 151.107 141.066 151.1 141.091C150.753 141.368 150.365 141.59 149.95 141.751C149.516 141.863 149.068 141.914 148.62 141.901C148.599 141.888 148.576 141.88 148.551 141.877C148.527 141.874 148.503 141.876 148.479 141.884C148.456 141.891 148.435 141.904 148.417 141.921C148.399 141.937 148.384 141.957 148.375 141.98C148.365 142.002 148.361 142.027 148.362 142.051C148.362 142.076 148.369 142.1 148.38 142.122C148.39 142.144 148.406 142.163 148.425 142.178C148.444 142.194 148.466 142.205 148.49 142.211C148.715 142.41 148.987 142.551 149.28 142.621ZM154.76 169.091C152.57 167.391 150.17 168.041 148.29 170.091C146.76 166.931 143.93 165.961 140.5 168.621C135.33 172.621 144.3 183.821 145.5 184.211C145.603 184.251 145.717 184.251 145.82 184.211C146.25 183.981 156.34 178.561 156.82 173.271C156.881 172.453 156.722 171.635 156.36 170.9C155.998 170.165 155.445 169.54 154.76 169.091Z" fill="black"/>
</svg>
