<svg width="200" height="200" viewBox="0 0 200 200" fill="none" xmlns="http://www.w3.org/2000/svg">
<path d="M180.19 62.36C180.32 62.51 179.57 62.36 190.48 64.29V63.66L180.7 61.71C167.61 46.78 149.49 41.33 129.49 41.91C127.99 36.91 120.94 13.52 119.68 10.28C118.28 6.68 115.89 5 112.16 5C108.65 5 57.1599 18.8 54.1599 19.63C48.4699 21.16 30.8799 25.52 19.1599 28.54C7.99986 31.43 9.22986 38.55 9.99986 42.8C14.2999 67 24.4999 102.71 40.9199 140.55C39.3635 145.337 38.7455 150.379 39.0999 155.4C40.4799 174.18 54.9899 187.72 69.9199 191.86L70.9999 195H72.0699C70.7599 191.41 70.8499 191.12 70.4299 191C54.9999 186.57 41.7399 172.75 40.3199 155.3C39.3199 142.73 45.3199 129.65 53.8499 121.9C56.3999 119.6 61.8499 115.9 63.6599 118.78C55.7799 131.35 50.2099 145.69 48.8999 155.73C49.5876 155.615 50.2938 155.694 50.9388 155.959C51.5838 156.224 52.1418 156.665 52.5499 157.23C52.7699 157.53 52.6799 158.12 52.1799 157.62C51.805 157.273 51.3636 157.005 50.8823 156.833C50.4011 156.661 49.8899 156.589 49.3799 156.62C49.2859 156.631 49.195 156.66 49.1126 156.707C49.0302 156.753 48.9579 156.815 48.8999 156.89C48.5899 157.32 48.8999 157.96 49.3099 158.31C50.1615 158.952 51.1772 159.34 52.2399 159.43C52.4094 159.443 52.5796 159.416 52.7363 159.35C52.8929 159.284 53.0313 159.181 53.1399 159.05C56.3899 155.031 59.3221 150.764 61.9099 146.29C63.0452 150.195 64.7682 153.904 67.0199 157.29L64.9999 161C64.9887 161.018 64.9813 161.039 64.978 161.06C64.9747 161.081 64.9757 161.103 64.9808 161.124C64.9859 161.145 64.9951 161.164 65.0078 161.182C65.0205 161.199 65.0365 161.214 65.0549 161.225C65.0733 161.236 65.0937 161.244 65.1149 161.247C65.1362 161.25 65.1579 161.249 65.1788 161.244C65.1997 161.239 65.2193 161.23 65.2367 161.217C65.254 161.204 65.2687 161.188 65.2799 161.17L67.9999 157.5C68.0365 157.443 68.0559 157.377 68.0559 157.31C68.0559 157.243 68.0365 157.177 67.9999 157.12C66.4281 154.793 65.0883 152.318 63.9999 149.73C62.9482 147.172 62.1673 144.511 61.6699 141.79C58.3399 122.07 80.2299 133.55 85.5099 161.23C88.0499 174.43 84.2899 182.23 84.2899 182.87C84.2942 182.918 84.3146 182.964 84.3477 183C84.3808 183.036 84.4248 183.059 84.4728 183.067C84.5208 183.075 84.5702 183.067 84.6131 183.044C84.656 183.021 84.69 182.984 84.7099 182.94C86.8645 176.829 87.5496 170.296 86.7099 163.87C88.3297 163.941 89.951 163.769 91.5199 163.36C93.0499 167.36 93.3999 170.97 91.8699 175.1C91.8366 175.161 91.8192 175.23 91.8192 175.3C91.8192 175.37 91.8366 175.439 91.8699 175.5L105.5 195H106.75L92.6799 175.2C92.8718 174.719 93.0387 174.228 93.1799 173.73C93.1799 173.73 119.18 166.42 126.03 164.1C130.44 162.6 148.58 156.77 154.75 154.81C161.21 152.76 163.92 150.92 165.08 147.81C166.24 144.7 164.51 140.35 160.56 130.64C158.47 125.49 147.56 96.35 146.88 94.64C152.88 94.53 160.96 91.54 165.88 88.42L190.44 100.75V99.75L165.87 86.94C162.11 89.12 156.24 93.05 146.71 94.14C140.65 78.01 141.52 80.92 138.22 70.42C139.6 70.26 140.99 70.06 142.36 69.84L150.63 76.2C150.675 76.2371 150.733 76.2548 150.791 76.2492C150.849 76.2436 150.903 76.2151 150.94 76.17C150.977 76.1249 150.995 76.0669 150.989 76.0088C150.983 75.9506 150.955 75.8971 150.91 75.86L142.79 69C142.48 68.75 142.38 69 137.95 69.38C133.13 69.87 122.22 70.46 118.36 67.57C116.36 66.01 116.79 64.04 118.5 62.12C125.5 54.58 145.79 51.84 156.7 51.46C156.726 51.4664 156.754 51.4667 156.781 51.4608C156.807 51.455 156.832 51.4432 156.853 51.4264C156.875 51.4095 156.892 51.3881 156.904 51.3636C156.916 51.3391 156.922 51.3122 156.922 51.285C156.922 51.2578 156.916 51.2309 156.904 51.2064C156.892 51.1819 156.875 51.1605 156.853 51.1436C156.832 51.1268 156.807 51.115 156.781 51.1092C156.754 51.1033 156.726 51.1036 156.7 51.11C148.768 51.1195 140.87 52.1275 133.19 54.11C132.03 50.31 130.84 46.4 129.68 42.56C166.69 42.78 177.88 60.88 180.19 62.36ZM19.9399 31.41C32.2499 28.23 101.25 10.15 110.6 8.22C111.858 7.85571 113.199 7.90124 114.43 8.35C115.98 9.01 116.64 10.49 117.43 12.71C96.2099 17.33 26.9999 35.56 12.5799 40.22C12.1399 36.66 12.7499 33.27 19.9399 31.41ZM12.6099 40.41C22.2599 37.41 55.1499 28.75 64.9699 26.18C104.88 15.66 117.44 12.89 117.46 12.88C118.03 14.59 118.89 17.31 119.93 20.69C100.2 24.59 31.9299 43.1 14.1899 48.69C13.6799 46.37 12.8799 42.47 12.6099 40.43V40.41ZM14.2399 48.87C27.3299 44.87 101.55 24.64 119.99 20.87C120.99 24.16 122.2 28.07 123.47 32.26C108.22 35.52 33.6299 55.12 16.9399 60.26C15.8299 55.83 14.9099 51.91 14.2399 48.89V48.87ZM63.9999 118.28C61.7699 115.2 56.2499 118.78 53.3399 121.28C50.4724 123.824 47.9779 126.76 45.9299 130C44.2599 129.4 42.8599 126 41.3599 122.28C39.1981 117.072 37.3808 111.727 35.9199 106.28C35.5199 104.53 35.4599 103.18 36.8599 102.01C38.5699 100.55 45.8599 98.21 48.0099 97.52C52.1099 96.2 56.7299 95.12 60.9199 94.19C62.5799 93.83 64.3499 93.87 65.3399 94.93C66.8099 96.47 69.4799 104.29 70.9899 108.69C69.3299 110.69 67.7199 112.78 66.1799 115C62.6257 112.727 58.8372 110.843 54.8799 109.38C55.8799 107.62 60.0999 100.05 61.4199 97.59C61.4504 97.5369 61.4585 97.474 61.4426 97.4149C61.4267 97.3558 61.3879 97.3055 61.3349 97.275C61.2818 97.2445 61.2188 97.2363 61.1598 97.2523C61.1007 97.2682 61.0504 97.307 61.0199 97.36C58.2499 101.53 55.9699 105.23 53.8699 108.99C48.9199 107.16 44.8699 105.99 40.2199 104.73C40.1615 104.71 40.0977 104.714 40.0423 104.741C39.987 104.769 39.9448 104.817 39.9249 104.875C39.905 104.933 39.9091 104.997 39.9363 105.053C39.9635 105.108 40.0115 105.15 40.0699 105.17C43.2599 106.43 48.9099 108.28 53.3299 109.95C50.7069 114.654 48.5114 119.584 46.7699 124.68C46.7585 124.733 46.7662 124.788 46.7916 124.836C46.8169 124.884 46.8583 124.921 46.9085 124.941C46.9586 124.962 47.0143 124.964 47.0658 124.947C47.1173 124.93 47.1612 124.896 47.1899 124.85C50.8399 116.93 53.8899 111.22 54.3599 110.34C58.2868 111.805 62.0891 113.584 65.7299 115.66C65.1299 116.48 64.5499 117.37 63.9999 118.28ZM68.9999 132.05C69.4399 131 69.8699 129.95 70.2799 128.9C73.0199 129.01 78.4399 129.45 79.9199 131.77C81.3999 134.09 78.3099 136.48 75.5199 137.39C73.7404 135.177 71.5201 133.358 68.9999 132.05ZM76.2399 138.27C80.0099 138.97 88.8399 140.59 89.4899 144.38C90.0099 147.24 85.7099 148.87 82.6099 149.21C80.9721 145.308 78.8414 141.631 76.2699 138.27H76.2399ZM86.5399 163.33C86.0334 159.46 85.0942 155.66 83.7399 152C87.3399 153.29 95.6699 157 94.4599 160.53C93.6799 162.84 89.2299 163.37 86.5699 163.33H86.5399ZM162.27 146.75C161.61 148.53 159.96 150.03 153.82 151.98C122.76 161.84 124.57 161.86 93.6399 170.51C93.7155 167.965 93.1041 165.447 91.8699 163.22C92.55 163.059 93.1857 162.748 93.7306 162.311C94.2755 161.873 94.716 161.319 95.0199 160.69C96.4599 156.55 87.4399 152.69 83.3899 151.12C82.9799 150.04 82.8999 149.89 82.8299 149.72C86.2599 149.23 90.5499 147.41 90.0099 144.3C89.9374 143.88 89.7882 143.476 89.5699 143.11C89.5699 143.11 152.14 124.6 154.74 123.94C159.46 136.18 163.29 144.07 162.3 146.75H162.27ZM118.07 61.75C115.46 64.68 116.8 66.53 116.79 66.66C117.101 67.1821 117.512 67.6374 118 68C118.695 68.5523 119.466 69.0003 120.29 69.33C105 74 38.2799 93.2 37.9999 93.29C34.3199 94.29 31.8899 95.01 29.9999 89.65C33.9999 85 47.3099 69.51 49.9999 67.59C50.9474 66.882 52.097 66.4964 53.2799 66.49C57.4099 66.37 78.3899 76.25 82.0599 74.49C84.5799 73.27 93.3099 59.55 93.3999 59.42C99.6499 49.79 98.8399 50.34 113.07 52.66C116.24 53.18 120.57 53.88 126.2 54.77L126.63 56.32C123.4 57.61 120.15 59.42 118.1 61.74L118.07 61.75ZM29.7099 89C27.9999 84 23.3799 69.21 23.6499 67C23.7704 66.2083 24.118 65.4686 24.6504 64.8704C25.1829 64.2723 25.8774 63.8414 26.6499 63.63C29.9599 62.7 116.41 39.07 118.78 39.07C120.67 39.07 121.4 40.07 122.12 41.9C123.618 45.9259 124.913 50.0244 126 54.18C105 50.72 103.37 50.03 100.41 50.72C97.9199 51.3 96.8099 52.72 92.7099 58.95C89.6399 63.69 83.3799 72.89 81.7099 73.72C80.2699 74.42 79.4999 74.18 75.2499 72.85C69.8099 71.14 66.8399 70.18 60.4999 67.67C56.6799 66.15 52.9599 64.5 49.4999 66.95C46.3499 69.24 32.1999 86 29.7099 89ZM130.33 54.91C129.33 55.23 128.26 55.6 127.19 56.03C125.932 51.1804 124.41 46.4032 122.63 41.72C121.82 39.72 120.92 38.57 118.74 38.54C117.53 38.54 65.4399 52 26.4599 63.1C25.5851 63.3476 24.7997 63.841 24.197 64.5217C23.5944 65.2023 23.1997 66.0417 23.0599 66.94C22.7199 69.51 27.2199 83.94 29.2899 89.53C31.7199 96.09 34.3999 94.79 39.1299 93.53C58.6999 88.43 101.13 75.99 121.2 69.69C125.52 71.13 130.69 71.02 135.2 70.69C136.87 76.04 138.2 80.14 138.92 81.96C140.25 85.35 152.25 117.34 154.7 123.74C149.95 124.92 147.59 125.68 89.4899 142.93C87.3399 139.61 80.6099 138.02 76.6199 137.54C78.8299 136.54 80.9699 134.94 80.8199 132.54C80.6699 130.14 76.9299 129.17 75.7099 128.87C74.0226 128.477 72.3012 128.25 70.5699 128.19C72.9655 122.1 74.7151 115.775 75.7899 109.32C76.0799 107.49 72.9899 106.32 71.9999 107.42L71.1399 108.42C68.8099 101.52 66.7699 95.91 65.4499 94.5C64.4499 93.37 62.3699 93.59 60.8499 93.82C55.6099 94.64 39.7499 99.01 36.6299 101.65C35.5499 102.72 34.9399 103.52 35.5699 106.27C37.0079 111.768 38.8221 117.161 40.9999 122.41C42.1899 125.32 43.8599 129.57 45.7399 130.25C44.4669 132.261 43.3503 134.368 42.3999 136.55C32.8899 114.87 26.3999 98.55 16.9799 60.55C32.4899 55.84 111.24 35.22 123.52 32.55C124.38 35.28 129 50.38 130.33 54.91Z" fill="black"/>
<path d="M76.4202 103.7C75.6802 103.43 74.2002 105.7 73.8302 106.33C73.8201 106.346 73.8139 106.364 73.8121 106.383C73.8103 106.401 73.8129 106.42 73.8197 106.438C73.8265 106.455 73.8374 106.471 73.8513 106.484C73.8653 106.496 73.882 106.505 73.9002 106.51C74.4654 106.639 74.9949 106.891 75.4502 107.25C75.4614 107.263 75.4753 107.273 75.4908 107.28C75.5063 107.287 75.5231 107.291 75.5402 107.291C75.5572 107.291 75.574 107.287 75.5895 107.28C75.6051 107.273 75.6189 107.263 75.6302 107.25C75.9402 106.59 77.1602 104 76.4202 103.7ZM22.4002 41.2702C20.4734 41.6472 18.6065 42.2829 16.8502 43.1602C17.432 42.2678 17.9564 41.3392 18.4202 40.3802C18.4286 40.3581 18.429 40.3337 18.4211 40.3114C18.4133 40.2891 18.3978 40.2703 18.3775 40.2583C18.3571 40.2463 18.3331 40.2419 18.3098 40.2459C18.2865 40.2499 18.2654 40.2621 18.2502 40.2802C17.5925 41.2665 17.0012 42.2954 16.4802 43.3602C16.3102 43.7202 19.2802 44.5402 19.6702 44.6002C19.6912 44.6002 19.7116 44.5936 19.7286 44.5813C19.7457 44.569 19.7584 44.5517 19.765 44.5318C19.7717 44.5119 19.7719 44.4904 19.7656 44.4704C19.7594 44.4503 19.747 44.4328 19.7302 44.4202C18.8292 43.9772 17.8794 43.6416 16.9002 43.4202C18.7029 42.6598 20.5535 42.0184 22.4402 41.5002C22.6202 41.3902 22.5702 41.2402 22.4002 41.2702ZM32.8802 38.5702C31.7657 37.975 30.6053 37.47 29.4102 37.0602C29.3873 37.0545 29.3633 37.057 29.3421 37.0674C29.321 37.0777 29.3042 37.0951 29.2946 37.1166C29.2851 37.1381 29.2834 37.1623 29.2899 37.1849C29.2964 37.2075 29.3107 37.2271 29.3302 37.2402C30.2954 37.7666 31.2981 38.2211 32.3302 38.6002C30.4202 38.7848 28.5491 39.2568 26.7802 40.0002C26.7607 40.0133 26.7464 40.0329 26.7399 40.0555C26.7334 40.0781 26.7351 40.1023 26.7446 40.1238C26.7542 40.1453 26.771 40.1627 26.7921 40.173C26.8133 40.1833 26.8373 40.1859 26.8602 40.1802C28.1802 39.7602 30.0902 39.3902 32.5702 38.8802C31.9263 39.6605 31.354 40.4972 30.8602 41.3802C30.8537 41.4022 30.8544 41.4257 30.8619 41.4473C30.8695 41.4689 30.8836 41.4877 30.9023 41.5009C30.921 41.5141 30.9434 41.5211 30.9664 41.521C30.9893 41.5209 31.0116 41.5136 31.0302 41.5002C31.7461 40.6528 32.379 39.7386 32.9202 38.7702C32.9351 38.7562 32.9462 38.7387 32.9524 38.7193C32.9587 38.6998 32.9598 38.6791 32.9558 38.6591C32.9518 38.639 32.9428 38.6204 32.9295 38.6048C32.9163 38.5893 32.8993 38.5773 32.8802 38.5702ZM41.8102 37.2502C41.7788 37.8365 41.537 38.3919 41.1293 38.8144C40.7215 39.2368 40.175 39.4981 39.5902 39.5502C39.0283 39.5944 38.4678 39.449 37.9983 39.1372C37.5288 38.8254 37.1774 38.3652 37.0002 37.8302C36.8524 37.2791 36.9042 36.6936 37.1462 36.177C37.3882 35.6604 37.8049 35.2459 38.3229 35.0066C38.8408 34.7674 39.4266 34.7188 39.9768 34.8695C40.5271 35.0202 41.0064 35.3605 41.3302 35.8302C40.8463 35.8069 40.3613 35.8236 39.8802 35.8802C39.8536 35.8802 39.8282 35.8907 39.8095 35.9095C39.7907 35.9282 39.7802 35.9537 39.7802 35.9802C39.7802 36.0067 39.7907 36.0321 39.8095 36.0509C39.8282 36.0697 39.8536 36.0802 39.8802 36.0802C40.4352 36.1399 40.9951 36.1399 41.5502 36.0802C41.5721 36.0751 41.5922 36.064 41.6081 36.0481C41.624 36.0322 41.6351 36.0121 41.6402 35.9902C41.7649 35.4122 41.7953 34.8179 41.7302 34.2302C41.7302 34.2037 41.7196 34.1782 41.7009 34.1595C41.6821 34.1407 41.6567 34.1302 41.6302 34.1302C41.6036 34.1302 41.5782 34.1407 41.5595 34.1595C41.5407 34.1782 41.5302 34.2037 41.5302 34.2302C41.4295 34.693 41.3924 35.1674 41.4202 35.6402C39.5902 33.0002 35.7802 35.1802 36.6202 38.0202C37.5302 41.2102 42.3802 40.3902 42.0202 37.3202C42.0294 37.2923 42.0273 37.2619 42.0142 37.2357C42.001 37.2094 41.978 37.1895 41.9502 37.1802C41.9223 37.1709 41.8919 37.1731 41.8657 37.1862C41.8394 37.1993 41.8194 37.2223 41.8102 37.2502ZM18.7102 34.0002C18.453 34.0002 18.2017 34.0764 17.9879 34.2193C17.7741 34.3621 17.6075 34.5652 17.5091 34.8027C17.4107 35.0402 17.385 35.3016 17.4351 35.5538C17.4853 35.806 17.6091 36.0376 17.7909 36.2194C17.9727 36.4012 18.2044 36.525 18.4565 36.5752C18.7087 36.6254 18.9701 36.5996 19.2077 36.5012C19.4452 36.4028 19.6482 36.2362 19.7911 36.0224C19.9339 35.8086 20.0102 35.5573 20.0102 35.3002C20.0102 34.9554 19.8732 34.6247 19.6294 34.3809C19.3856 34.1372 19.0549 34.0002 18.7102 34.0002ZM23.3002 32.6202C23.043 32.6202 22.7917 32.6964 22.5779 32.8393C22.3641 32.9821 22.1975 33.1852 22.0991 33.4227C22.0007 33.6602 21.975 33.9216 22.0251 34.1738C22.0753 34.426 22.1991 34.6576 22.3809 34.8394C22.5627 35.0212 22.7944 35.1451 23.0465 35.1952C23.2987 35.2454 23.5601 35.2196 23.7977 35.1212C24.0352 35.0228 24.2382 34.8562 24.3811 34.6424C24.5239 34.4286 24.6002 34.1773 24.6002 33.9202C24.6002 33.5754 24.4632 33.2447 24.2194 33.001C23.9756 32.7572 23.6449 32.6202 23.3002 32.6202ZM27.9002 31.2702C27.643 31.2702 27.3917 31.3464 27.1779 31.4893C26.9641 31.6321 26.7975 31.8352 26.6991 32.0727C26.6007 32.3102 26.575 32.5716 26.6251 32.8238C26.6753 33.076 26.7991 33.3076 26.9809 33.4894C27.1627 33.6712 27.3944 33.795 27.6465 33.8452C27.8987 33.8954 28.1601 33.8696 28.3977 33.7712C28.6352 33.6728 28.8382 33.5062 28.9811 33.2924C29.1239 33.0786 29.2002 32.8273 29.2002 32.5702C29.2002 32.2254 29.0632 31.8947 28.8194 31.651C28.5756 31.4072 28.2449 31.2702 27.9002 31.2702ZM114.27 15.5702C113.49 15.5702 55.3402 30.3502 50.4902 31.6502C47.4902 32.4602 46.8002 32.5202 46.2002 33.5202C45.9817 33.8736 45.8621 34.2791 45.8538 34.6945C45.8456 35.1099 45.9491 35.5198 46.1535 35.8815C46.3578 36.2433 46.6556 36.5435 47.0156 36.7508C47.3756 36.9581 47.7847 37.065 48.2002 37.0602C48.9862 36.9595 49.758 36.7682 50.5002 36.4902C63.2702 33.0002 113.62 20.4902 114.24 20.3702C114.642 20.3227 115.028 20.1891 115.373 19.9786C115.719 19.768 116.014 19.4855 116.24 19.1502C116.454 18.7958 116.571 18.3914 116.58 17.9774C116.588 17.5635 116.488 17.1546 116.288 16.7919C116.088 16.4292 115.797 16.1253 115.443 15.9109C115.088 15.6964 114.684 15.5789 114.27 15.5702ZM116.06 19.0002C115.845 19.3065 115.567 19.5631 115.244 19.7528C114.922 19.9426 114.562 20.061 114.19 20.1002C41.3902 38.3302 48.8902 36.8502 48.1902 36.8502C47.819 36.8442 47.4559 36.7409 47.1372 36.5505C46.8184 36.3601 46.5553 36.0894 46.3741 35.7654C46.1928 35.4414 46.0999 35.0755 46.1044 34.7043C46.109 34.3331 46.211 33.9696 46.4002 33.6502C46.9302 32.7902 47.4002 32.7502 50.5302 31.9102C56.1302 30.4002 113.53 15.8402 114.24 15.8402C114.61 15.8389 114.974 15.9356 115.295 16.1203C115.616 16.305 115.882 16.5713 116.067 16.8921C116.252 17.2129 116.349 17.5769 116.347 17.9471C116.346 18.3173 116.247 18.6806 116.06 19.0002Z" fill="black"/>
<path d="M51.6598 35.0003C51.394 34.7946 51.1013 34.6264 50.7898 34.5003C50.9219 34.2219 50.9419 33.9034 50.8455 33.6107C50.7492 33.318 50.5439 33.0735 50.2723 32.928C50.0006 32.7825 49.6834 32.7471 49.3864 32.8291C49.0893 32.9111 48.8352 33.1042 48.6767 33.3684C48.5181 33.6327 48.4673 33.9478 48.5348 34.2485C48.6022 34.5492 48.7827 34.8124 49.0389 34.9836C49.2952 35.1548 49.6074 35.2209 49.911 35.1681C50.2146 35.1154 50.4863 34.9479 50.6698 34.7003C50.9514 34.8899 51.2533 35.0475 51.5698 35.1703C51.5911 35.1748 51.6132 35.1723 51.6329 35.1631C51.6526 35.1539 51.6688 35.1385 51.679 35.1193C51.6891 35.1001 51.6928 35.0781 51.6893 35.0566C51.6858 35.0351 51.6755 35.0154 51.6598 35.0003ZM49.6598 35.0003C49.4599 35.0123 49.261 34.964 49.0888 34.8617C48.9167 34.7594 48.7792 34.6077 48.6943 34.4264C48.6093 34.2451 48.5807 34.0424 48.6123 33.8446C48.6438 33.6469 48.734 33.4631 48.8712 33.3172C49.0083 33.1713 49.1861 33.0699 49.3816 33.0262C49.577 32.9825 49.7811 32.9985 49.9673 33.0721C50.1536 33.1457 50.3134 33.2735 50.4262 33.439C50.5389 33.6045 50.5994 33.8001 50.5998 34.0003C50.6008 34.2507 50.5079 34.4923 50.3394 34.6774C50.1709 34.8626 49.9391 34.9778 49.6898 35.0003H49.6598ZM112.78 17.8803C112.57 16.4903 112.08 16.6003 111.89 17.3603C111.843 17.5308 111.81 17.7047 111.79 17.8803C111.46 17.8803 110.72 17.7903 110.56 18.0903C110.4 18.3903 110.73 18.5503 110.98 18.6603C111.15 18.7332 111.328 18.7868 111.51 18.8203C111.28 19.1303 110.99 19.7203 111.29 19.9103C111.59 20.1003 112.15 19.5103 112.4 19.2403C112.66 19.4603 113.17 19.8303 113.46 19.6503C113.75 19.4703 113.29 18.9303 113.03 18.6503C113.37 18.5803 113.88 18.4203 113.8 18.0903C113.72 17.7603 113.09 17.8503 112.78 17.8803ZM112.89 18.5803C112.83 18.5803 112.81 18.6303 112.89 18.6903C112.97 18.7503 113.54 19.3803 113.39 19.5203C113.24 19.6603 112.68 19.2303 112.47 19.0803C112.455 19.0704 112.438 19.0651 112.42 19.0651C112.402 19.0651 112.385 19.0704 112.37 19.0803C112.04 19.4003 111.53 19.8403 111.37 19.7203C111.21 19.6003 111.65 18.8903 111.69 18.7803C111.699 18.771 111.704 18.7584 111.704 18.7453C111.704 18.7322 111.699 18.7197 111.69 18.7103C111.51 18.6403 110.75 18.4103 110.8 18.1603C110.85 17.9103 111.8 18.0003 111.91 18.0103C112.02 18.0203 111.99 17.9603 112 17.8803C112.19 16.8803 112.36 16.9503 112.44 17.0903C112.562 17.3663 112.666 17.6503 112.75 17.9403V17.9903C112.75 17.9903 113.61 17.9903 113.67 18.1603C113.73 18.3303 113.13 18.5303 112.89 18.5803ZM74.2798 103.61C72.3998 97.2503 70.9998 94.5503 71.6698 92.3803C73.0098 88.4903 86.6698 85.1703 91.2198 84.1203C92.7698 83.7603 96.2798 82.9403 97.7698 83.2603C99.2598 83.5803 100.16 84.4503 103.59 94.7603C105.036 98.9903 106.222 103.305 107.14 107.68C107.3 108.195 107.345 108.739 107.271 109.273C107.196 109.808 107.005 110.319 106.71 110.77C105.13 112.87 93.7998 115.97 91.2598 116.67C78.9098 120.06 80.3998 119.55 76.7098 110.3C76.7098 110.282 76.7024 110.264 76.6893 110.251C76.6762 110.238 76.6584 110.23 76.6398 110.23C76.6212 110.23 76.6034 110.238 76.5903 110.251C76.5772 110.264 76.5698 110.282 76.5698 110.3C78.1898 115.3 78.7798 118.17 81.4398 118.85C83.4398 119.38 89.2298 117.54 91.3498 116.94C104.68 113.11 106.13 112.04 106.98 110.94C107.3 110.453 107.51 109.901 107.594 109.325C107.679 108.748 107.637 108.159 107.47 107.6C106.556 103.198 105.37 98.8563 103.92 94.6003C100.47 84.3003 99.5898 83.2703 97.8398 82.8903C96.3198 82.5603 93.2598 83.2703 91.1498 83.7603C86.5998 84.8303 72.8498 88.1403 71.3898 92.2403C70.5798 94.6703 73.0798 100.99 74.1298 103.61C74.1698 103.75 74.3098 103.7 74.2798 103.61ZM116.16 108.52C119.03 108.35 131.82 104.73 138.16 101.96C140.3 101.02 141.37 100.07 140.86 97.8003C138.768 90.4332 136.196 83.211 133.16 76.1803C132.779 75.0192 131.995 74.033 130.95 73.4003C128.65 72.3003 117.5 75.9303 113.79 77.1303C111.44 77.8903 107.42 79.1803 105.79 80.8003C104.35 82.1803 104.55 83.9403 105.09 85.8603C111.36 108 112.65 108.72 116.16 108.52ZM105.92 81.0003C107.55 79.4303 111.56 78.1603 113.85 77.4203C117.03 76.4203 128.67 72.6903 130.85 73.7003C131.826 74.3105 132.555 75.2453 132.91 76.3403C135.934 83.3465 138.48 90.5497 140.53 97.9003C140.94 100.08 140.08 100.75 138.05 101.64C132.68 103.99 119.22 108.01 116.19 108.21C112.71 108.43 111.52 107.21 105.31 85.8303C104.75 84.0003 104.55 82.2803 105.92 81.0003ZM37.6998 46.1803C37.6858 46.1173 37.6592 46.0578 37.6216 46.0054C37.5841 45.9529 37.5364 45.9085 37.4813 45.8749C37.4262 45.8413 37.3649 45.8192 37.3011 45.8098C37.2373 45.8004 37.1722 45.804 37.1098 45.8203L19.3798 50.5103C19.2472 50.5448 19.1337 50.6305 19.0643 50.7487C18.9949 50.8668 18.9753 51.0077 19.0098 51.1403C19.0443 51.2729 19.13 51.3864 19.2482 51.4558C19.3663 51.5252 19.5072 51.5448 19.6398 51.5103L37.3598 46.8203C37.4259 46.8034 37.4877 46.7729 37.5414 46.7308C37.595 46.6886 37.6392 46.6357 37.6712 46.5754C37.7032 46.5152 37.7223 46.4489 37.7272 46.3809C37.7321 46.3129 37.7228 46.2445 37.6998 46.1803ZM33.8498 51.1803C33.8346 51.1182 33.8073 51.0598 33.7692 51.0085C33.7312 50.9571 33.6833 50.9139 33.6284 50.8813C33.5734 50.8487 33.5125 50.8274 33.4492 50.8186C33.3859 50.8099 33.3215 50.8139 33.2598 50.8303L20.3598 54.2403C20.296 54.2575 20.2364 54.2874 20.1844 54.3282C20.1325 54.369 20.0894 54.4199 20.0576 54.4778C20.0259 54.5357 20.0061 54.5995 19.9996 54.6652C19.9931 54.7309 20 54.7973 20.0198 54.8603C20.0348 54.9222 20.0622 54.9804 20.1004 55.0314C20.1386 55.0823 20.1867 55.125 20.2419 55.1568C20.2971 55.1886 20.3581 55.2089 20.4214 55.2163C20.4846 55.2238 20.5487 55.2184 20.6098 55.2003L33.5098 51.7903C33.5724 51.773 33.631 51.7435 33.6821 51.7033C33.7333 51.6632 33.7759 51.6133 33.8075 51.5565C33.8392 51.4997 33.8592 51.4372 33.8665 51.3727C33.8737 51.3081 33.868 51.2427 33.8498 51.1803ZM45.0998 44.0003C45.1348 44.1246 45.2175 44.2301 45.3298 44.2937C45.4422 44.3574 45.5752 44.3741 45.6998 44.3403L63.4198 39.6503C63.4822 39.6339 63.5407 39.6054 63.592 39.5663C63.6434 39.5273 63.6866 39.4785 63.7191 39.4228C63.7516 39.3671 63.7728 39.3055 63.7815 39.2416C63.7902 39.1777 63.7862 39.1127 63.7698 39.0503C63.7534 38.9879 63.7248 38.9294 63.6858 38.8781C63.6468 38.8267 63.598 38.7836 63.5423 38.7511C63.4866 38.7186 63.425 38.6973 63.3611 38.6886C63.2972 38.6799 63.2322 38.6839 63.1698 38.7003L45.4498 43.4303C45.3301 43.4633 45.2274 43.5405 45.1624 43.6463C45.0974 43.7521 45.0751 43.8786 45.0998 44.0003ZM59.9198 44.0903C59.8846 43.9656 59.8024 43.8594 59.6905 43.7941C59.5786 43.7288 59.4457 43.7095 59.3198 43.7403L46.4198 47.1603C46.3564 47.1763 46.2969 47.2052 46.2451 47.245C46.1932 47.2848 46.15 47.3349 46.1182 47.392C46.0864 47.4491 46.0665 47.5121 46.0599 47.5772C46.0533 47.6422 46.0601 47.708 46.0798 47.7703C46.1128 47.8943 46.193 48.0003 46.3033 48.0658C46.4136 48.1312 46.5452 48.1508 46.6698 48.1203L59.5798 44.7003C59.7048 44.6631 59.8104 44.5785 59.8739 44.4645C59.9375 44.3505 59.9539 44.2163 59.9198 44.0903ZM71.1698 37.0003C71.1849 37.0624 71.2123 37.1208 71.2503 37.1722C71.2884 37.2235 71.3363 37.2668 71.3912 37.2993C71.4462 37.3319 71.5071 37.3532 71.5704 37.362C71.6337 37.3707 71.6981 37.3668 71.7598 37.3503L89.4798 32.6603C89.5437 32.643 89.6036 32.6131 89.6559 32.5725C89.7082 32.5318 89.7519 32.4812 89.7844 32.4235C89.817 32.3658 89.8378 32.3022 89.8456 32.2365C89.8534 32.1707 89.848 32.104 89.8298 32.0403C89.7925 31.9175 89.7095 31.8136 89.5978 31.7503C89.4861 31.687 89.3543 31.6691 89.2298 31.7003L71.5098 36.3403C71.4403 36.3552 71.3751 36.3853 71.3187 36.4284C71.2623 36.4716 71.2161 36.5267 71.1836 36.5899C71.1511 36.653 71.133 36.7226 71.1306 36.7935C71.1282 36.8645 71.1416 36.9351 71.1698 37.0003ZM85.9998 37.0003C85.9648 36.876 85.8821 36.7706 85.7697 36.7069C85.6574 36.6432 85.5244 36.6265 85.3998 36.6603L72.4998 40.0703C72.3672 40.1048 72.2537 40.1905 72.1843 40.3087C72.1149 40.4268 72.0953 40.5677 72.1298 40.7003C72.1643 40.8329 72.25 40.9464 72.3682 41.0158C72.4863 41.0852 72.6272 41.1048 72.7598 41.0703L85.6598 37.6503C85.728 37.6351 85.792 37.6052 85.8474 37.5627C85.9029 37.5203 85.9484 37.4662 85.9807 37.4043C86.0131 37.3424 86.0316 37.2742 86.0349 37.2044C86.0382 37.1346 86.0262 37.065 85.9998 37.0003ZM97.2298 29.8703C97.246 29.9315 97.2742 29.9888 97.3127 30.0391C97.3512 30.0893 97.3992 30.1315 97.4541 30.1631C97.5089 30.1947 97.5694 30.2151 97.6322 30.2232C97.695 30.2313 97.7587 30.2269 97.8198 30.2103L115.55 25.5203C115.612 25.503 115.671 25.4735 115.722 25.4333C115.773 25.3932 115.816 25.3433 115.848 25.2865C115.879 25.2297 115.899 25.1672 115.906 25.1027C115.914 25.0381 115.908 24.9727 115.89 24.9103C115.874 24.8479 115.845 24.7892 115.806 24.7378C115.767 24.6864 115.718 24.6432 115.663 24.6106C115.607 24.5781 115.545 24.5569 115.481 24.5483C115.417 24.5397 115.352 24.5437 115.29 24.5603L97.5698 29.2503C97.4425 29.2874 97.3351 29.3736 97.2714 29.4899C97.2076 29.6062 97.1927 29.743 97.2298 29.8703ZM112 29.9203C111.985 29.8582 111.957 29.7998 111.919 29.7485C111.881 29.6971 111.833 29.6539 111.778 29.6213C111.723 29.5887 111.662 29.5674 111.599 29.5586C111.536 29.5499 111.472 29.5539 111.41 29.5703L98.5498 33.0003C98.4874 33.0167 98.4289 33.0453 98.3775 33.0843C98.3262 33.1233 98.283 33.1721 98.2505 33.2278C98.218 33.2835 98.1968 33.3451 98.1881 33.409C98.1794 33.4729 98.1834 33.5379 98.1998 33.6003C98.2162 33.6627 98.2447 33.7212 98.2838 33.7726C98.3228 33.8239 98.3716 33.8671 98.4273 33.8996C98.483 33.9321 98.5446 33.9533 98.6085 33.962C98.6724 33.9707 98.7374 33.9667 98.7998 33.9503L111.7 30.5403C111.761 30.5201 111.817 30.4879 111.865 30.4455C111.914 30.4032 111.953 30.3516 111.981 30.2937C112.009 30.2359 112.025 30.1731 112.028 30.1089C112.031 30.0448 112.022 29.9807 112 29.9203ZM108.13 116C108.11 115.938 108.079 115.881 108.037 115.831C107.996 115.781 107.944 115.74 107.887 115.711C107.829 115.681 107.766 115.663 107.701 115.658C107.637 115.652 107.571 115.66 107.51 115.68L84.5798 122.82C84.5181 122.839 84.4607 122.87 84.411 122.912C84.3612 122.953 84.3201 123.003 84.2899 123.061C84.2597 123.118 84.2411 123.18 84.2351 123.244C84.229 123.309 84.2357 123.374 84.2548 123.435C84.2738 123.497 84.3048 123.554 84.3461 123.604C84.3873 123.654 84.4379 123.695 84.495 123.725C84.5521 123.755 84.6146 123.774 84.6789 123.78C84.7432 123.786 84.8081 123.779 84.8698 123.76L107.8 116.62C107.925 116.581 108.03 116.494 108.092 116.378C108.154 116.262 108.167 116.126 108.13 116ZM103 122.82C102.98 122.758 102.949 122.701 102.907 122.651C102.866 122.601 102.814 122.56 102.757 122.531C102.699 122.501 102.636 122.483 102.571 122.478C102.507 122.472 102.441 122.48 102.38 122.5L85.8898 127.63C85.8278 127.65 85.7703 127.681 85.7206 127.723C85.6708 127.765 85.6299 127.816 85.6001 127.873C85.5704 127.931 85.5523 127.994 85.5471 128.059C85.5419 128.124 85.5496 128.189 85.5698 128.25C85.609 128.376 85.696 128.481 85.8121 128.543C85.9281 128.604 86.0638 128.618 86.1898 128.58L102.67 123.44C102.795 123.401 102.9 123.314 102.962 123.198C103.024 123.082 103.037 122.946 103 122.82ZM110.05 125.28L87.1198 132.43C87.0581 132.45 87.0008 132.482 86.9513 132.523C86.9019 132.565 86.8611 132.616 86.8314 132.674C86.8017 132.732 86.7836 132.794 86.7782 132.859C86.7727 132.924 86.7801 132.989 86.7998 133.05C86.8195 133.112 86.8511 133.169 86.893 133.219C86.9348 133.268 86.9859 133.309 87.0435 133.339C87.1011 133.368 87.1639 133.387 87.2285 133.392C87.2931 133.397 87.3581 133.39 87.4198 133.37L110.35 126.23C110.412 126.211 110.469 126.18 110.519 126.138C110.569 126.096 110.61 126.045 110.639 125.987C110.669 125.93 110.687 125.867 110.692 125.802C110.698 125.737 110.69 125.672 110.67 125.61C110.631 125.485 110.544 125.38 110.427 125.318C110.311 125.256 110.176 125.243 110.05 125.28ZM140.68 105.81L117.75 113C117.688 113.019 117.631 113.05 117.581 113.092C117.531 113.133 117.49 113.183 117.46 113.241C117.43 113.298 117.411 113.36 117.405 113.424C117.399 113.489 117.406 113.554 117.425 113.615C117.444 113.677 117.475 113.734 117.516 113.784C117.557 113.834 117.608 113.875 117.665 113.905C117.722 113.935 117.785 113.954 117.849 113.96C117.913 113.966 117.978 113.959 118.04 113.94L141 106.76C141.132 106.722 141.244 106.632 141.311 106.511C141.377 106.39 141.393 106.248 141.355 106.115C141.316 105.983 141.227 105.871 141.106 105.804C140.985 105.738 140.842 105.722 140.71 105.76L140.68 105.81ZM136.12 112.94C136.102 112.879 136.071 112.821 136.03 112.772C135.99 112.722 135.939 112.681 135.882 112.651C135.826 112.621 135.763 112.603 135.699 112.598C135.635 112.593 135.571 112.6 135.51 112.62L119 117.75C118.874 117.79 118.769 117.877 118.708 117.993C118.646 118.109 118.632 118.244 118.67 118.37C118.689 118.432 118.721 118.49 118.762 118.54C118.804 118.589 118.855 118.63 118.913 118.66C118.971 118.69 119.034 118.708 119.098 118.713C119.163 118.718 119.228 118.71 119.29 118.69L135.78 113.56C135.844 113.543 135.903 113.513 135.955 113.472C136.007 113.432 136.05 113.381 136.082 113.323C136.114 113.265 136.133 113.201 136.14 113.135C136.146 113.07 136.14 113.003 136.12 112.94ZM120 123.16C120.018 123.222 120.048 123.28 120.089 123.33C120.13 123.38 120.18 123.421 120.236 123.452C120.293 123.482 120.355 123.502 120.419 123.508C120.483 123.515 120.548 123.509 120.61 123.49L143.54 116.35C143.609 116.338 143.675 116.31 143.733 116.271C143.791 116.231 143.84 116.179 143.877 116.119C143.914 116.058 143.937 115.991 143.946 115.921C143.955 115.851 143.949 115.78 143.928 115.712C143.908 115.645 143.873 115.583 143.827 115.529C143.78 115.476 143.723 115.434 143.659 115.404C143.595 115.375 143.525 115.359 143.455 115.358C143.384 115.358 143.314 115.372 143.25 115.4L120.32 122.54C120.258 122.56 120.2 122.591 120.151 122.633C120.101 122.675 120.06 122.726 120.03 122.783C120 122.841 119.982 122.904 119.977 122.969C119.972 123.034 119.98 123.099 120 123.16ZM91.9998 148.41L103.2 145.01C103.312 144.961 103.402 144.873 103.454 144.761C103.505 144.65 103.513 144.523 103.478 144.406C103.442 144.289 103.364 144.189 103.26 144.125C103.155 144.061 103.03 144.038 102.91 144.06L91.7098 147.46C91.6404 147.473 91.5744 147.5 91.5163 147.54C91.4581 147.58 91.4091 147.632 91.3724 147.692C91.3357 147.752 91.3122 147.82 91.3034 147.89C91.2945 147.96 91.3006 148.031 91.3212 148.098C91.3418 148.166 91.3764 148.228 91.4229 148.281C91.4693 148.334 91.5264 148.377 91.5905 148.406C91.6546 148.436 91.7242 148.452 91.7947 148.452C91.8653 148.453 91.9351 148.439 91.9998 148.41ZM92.2798 151.89C92.319 152.016 92.406 152.121 92.5221 152.183C92.6381 152.244 92.7738 152.258 92.8998 152.22L108 147.63C108.11 147.581 108.198 147.493 108.248 147.383C108.298 147.273 108.307 147.149 108.273 147.033C108.239 146.918 108.164 146.818 108.063 146.753C107.961 146.688 107.839 146.663 107.72 146.68L92.5798 151.27C92.4598 151.316 92.3618 151.405 92.306 151.52C92.2502 151.636 92.2408 151.768 92.2798 151.89ZM95.9998 155.37L104.94 152.65C105.002 152.633 105.061 152.604 105.111 152.563C105.162 152.523 105.204 152.473 105.235 152.416C105.266 152.359 105.285 152.296 105.291 152.232C105.297 152.167 105.29 152.102 105.27 152.04C105.251 151.979 105.221 151.921 105.181 151.871C105.14 151.821 105.09 151.779 105.033 151.749C104.977 151.718 104.914 151.699 104.85 151.692C104.786 151.686 104.722 151.692 104.66 151.71L95.6598 154.42C95.5941 154.439 95.5329 154.471 95.4795 154.514C95.4261 154.557 95.3817 154.609 95.3487 154.669C95.3157 154.729 95.2949 154.795 95.2874 154.863C95.2798 154.931 95.2857 155 95.3048 155.065C95.3238 155.131 95.3556 155.192 95.3983 155.246C95.4411 155.299 95.4939 155.343 95.5538 155.376C95.6137 155.409 95.6795 155.43 95.7474 155.438C95.8154 155.445 95.8841 155.439 95.9498 155.42L95.9998 155.37ZM97.0798 158.81C97.119 158.936 97.2061 159.041 97.3221 159.103C97.4381 159.164 97.5738 159.178 97.6998 159.14L110.5 155.26C110.612 155.211 110.702 155.123 110.754 155.011C110.805 154.9 110.813 154.773 110.778 154.656C110.742 154.539 110.664 154.439 110.56 154.375C110.455 154.311 110.33 154.288 110.21 154.31L97.4098 158.19C97.2843 158.23 97.1793 158.317 97.1176 158.433C97.0558 158.549 97.0422 158.684 97.0798 158.81ZM106.78 160.12L96.1098 163.35C96.0441 163.369 95.9829 163.401 95.9295 163.444C95.8761 163.487 95.8317 163.539 95.7987 163.599C95.7657 163.659 95.7449 163.725 95.7374 163.793C95.7298 163.861 95.7357 163.93 95.7548 163.995C95.7738 164.061 95.8056 164.122 95.8483 164.176C95.8911 164.229 95.9439 164.273 96.0038 164.306C96.0637 164.339 96.1295 164.36 96.1974 164.368C96.2654 164.375 96.3341 164.369 96.3998 164.35L107.07 161.11C107.194 161.072 107.299 160.985 107.36 160.87C107.421 160.755 107.433 160.62 107.395 160.495C107.356 160.371 107.27 160.266 107.155 160.205C107.039 160.144 106.904 160.132 106.78 160.17V160.12ZM112.27 142.51L121.5 139.89C121.632 139.855 121.745 139.767 121.814 139.648C121.882 139.529 121.901 139.388 121.865 139.255C121.829 139.123 121.742 139.01 121.623 138.941C121.504 138.873 121.362 138.855 121.23 138.89L112 141.56C111.936 141.577 111.877 141.605 111.824 141.645C111.772 141.685 111.728 141.734 111.696 141.791C111.663 141.848 111.642 141.911 111.634 141.976C111.626 142.041 111.632 142.107 111.65 142.17C111.689 142.296 111.776 142.402 111.891 142.465C112.007 142.529 112.143 142.545 112.27 142.51ZM112.85 146C112.867 146.063 112.897 146.122 112.937 146.173C112.977 146.224 113.027 146.266 113.084 146.298C113.14 146.33 113.203 146.35 113.267 146.357C113.332 146.364 113.397 146.359 113.46 146.34L124.15 143.34C124.282 143.305 124.395 143.217 124.464 143.098C124.532 142.979 124.551 142.838 124.515 142.705C124.479 142.573 124.392 142.46 124.273 142.391C124.154 142.323 124.012 142.305 123.88 142.34L113.19 145.34C113.12 145.355 113.055 145.385 112.999 145.428C112.942 145.472 112.896 145.527 112.864 145.59C112.831 145.653 112.813 145.723 112.811 145.794C112.808 145.865 112.822 145.935 112.85 146ZM123.84 147C123.8 146.875 123.714 146.769 123.598 146.705C123.483 146.642 123.347 146.626 123.22 146.66L114.38 149.17C114.314 149.188 114.253 149.219 114.199 149.26C114.145 149.302 114.1 149.353 114.066 149.412C113.997 149.531 113.979 149.673 114.015 149.805C114.051 149.938 114.138 150.051 114.257 150.119C114.376 150.188 114.517 150.206 114.65 150.17L123.5 147.66C123.567 147.641 123.629 147.608 123.683 147.564C123.736 147.52 123.78 147.466 123.812 147.404C123.844 147.342 123.863 147.274 123.868 147.205C123.872 147.135 123.863 147.066 123.84 147ZM115.23 153.61C115.247 153.673 115.277 153.732 115.317 153.783C115.357 153.834 115.407 153.876 115.464 153.908C115.52 153.94 115.583 153.96 115.647 153.967C115.712 153.974 115.777 153.969 115.84 153.95L126.29 150.95C126.353 150.934 126.413 150.905 126.464 150.866C126.516 150.826 126.56 150.776 126.591 150.719C126.623 150.662 126.643 150.599 126.65 150.533C126.656 150.468 126.649 150.403 126.63 150.34C126.613 150.275 126.583 150.215 126.541 150.162C126.5 150.109 126.448 150.065 126.389 150.034C126.33 150.002 126.265 149.982 126.198 149.977C126.131 149.971 126.063 149.979 126 150L115.55 153C115.428 153.042 115.328 153.128 115.268 153.241C115.208 153.355 115.195 153.487 115.23 153.61ZM124 154.76L116.78 156.81C116.647 156.846 116.534 156.933 116.466 157.052C116.397 157.171 116.379 157.313 116.415 157.445C116.451 157.578 116.538 157.691 116.657 157.759C116.776 157.828 116.917 157.846 117.05 157.81L124.27 155.76C124.402 155.725 124.515 155.638 124.584 155.518C124.652 155.399 124.671 155.258 124.635 155.125C124.599 154.993 124.512 154.88 124.393 154.811C124.274 154.743 124.132 154.725 124 154.76ZM76.1298 64.0703C76.6429 64.5805 77.2739 64.9563 77.9669 65.1644C78.6599 65.3725 79.3936 65.4065 80.1029 65.2633C80.8121 65.1201 81.4752 64.8043 82.0332 64.3436C82.5913 63.883 83.0271 63.2919 83.3021 62.6226C83.5771 61.9533 83.6828 61.2265 83.6099 60.5066C83.5369 59.7867 83.2875 59.0959 82.8838 58.4954C82.4801 57.8949 81.9345 57.4033 81.2954 57.064C80.6563 56.7247 79.9434 56.5483 79.2198 56.5503C78.3452 56.543 77.4885 56.7977 76.7599 57.2816C76.0314 57.7655 75.4644 58.4565 75.132 59.2655C74.7996 60.0744 74.7169 60.9644 74.8948 61.8208C75.0726 62.6771 75.5027 63.4606 76.1298 64.0703ZM76.5598 58.2703C77.0047 57.8306 77.5511 57.5073 78.1506 57.3288C78.7501 57.1502 79.3843 57.1221 79.9973 57.2468C80.6102 57.3715 81.1831 57.6451 81.6652 58.0437C82.1474 58.4422 82.524 58.9533 82.7618 59.5318C82.9996 60.1104 83.0913 60.7386 83.0288 61.361C82.9663 61.9834 82.7515 62.5808 82.4034 63.1005C82.0553 63.6202 81.5846 64.0463 81.0329 64.341C80.4811 64.6357 79.8653 64.79 79.2398 64.7903C78.4841 64.7907 77.7455 64.5664 77.1176 64.1459C76.4898 63.7254 76.0012 63.1277 75.7139 62.4288C75.4267 61.7299 75.3537 60.9614 75.5043 60.2209C75.6549 59.4804 76.0223 58.8015 76.5598 58.2703Z" fill="black"/>
<path d="M96.42 85.1903C93.7337 89.6498 91.3613 94.291 89.32 99.0803C85.1125 96.8764 80.7706 94.9393 76.32 93.2803C76.2653 93.2641 76.2066 93.2673 76.1539 93.2891C76.1011 93.3109 76.0574 93.3502 76.03 93.4003C76.0055 93.4562 76.0031 93.5195 76.0236 93.5771C76.044 93.6347 76.0857 93.6823 76.14 93.7103C81.28 96.2603 88.9 100.08 88.9 100.08C86.8874 104.795 85.161 109.627 83.73 114.55C83.7209 114.584 83.7196 114.62 83.7263 114.654C83.7331 114.689 83.7476 114.721 83.7688 114.749C83.7901 114.777 83.8175 114.8 83.8489 114.816C83.8803 114.832 83.9149 114.84 83.95 114.84C84.33 114.84 83.89 114.84 89.8701 100.59C92.9501 102.21 97.87 104.99 103.39 108.32C103.442 108.355 103.505 108.367 103.566 108.355C103.627 108.343 103.681 108.307 103.715 108.255C103.75 108.204 103.762 108.14 103.75 108.079C103.738 108.018 103.702 107.965 103.65 107.93C99.4095 104.823 94.9439 102.035 90.29 99.5903C92.05 95.4703 94.19 90.8303 96.8301 85.4103C96.8592 85.3559 96.8656 85.2922 96.8478 85.2331C96.83 85.174 96.7894 85.1244 96.735 85.0953C96.6807 85.0661 96.6169 85.0597 96.5579 85.0775C96.4988 85.0953 96.4492 85.1359 96.42 85.1903ZM108.8 84.0003C112.8 86.0003 115.25 87.0903 121.8 90.4803C119.671 95.1357 117.87 99.934 116.41 104.84C116.391 104.899 116.397 104.962 116.425 105.016C116.453 105.071 116.502 105.112 116.56 105.13C116.618 105.149 116.682 105.143 116.736 105.115C116.791 105.087 116.831 105.039 116.85 104.98C118.93 99.9203 118.15 101.39 122.78 90.9803C126.78 93.1203 131.29 95.6903 136.08 98.5903C136.132 98.6247 136.195 98.6373 136.256 98.6251C136.317 98.6129 136.371 98.577 136.405 98.5253C136.44 98.4735 136.452 98.4102 136.44 98.3493C136.428 98.2884 136.392 98.2347 136.34 98.2003C132.163 95.1543 127.772 92.4138 123.2 90.0003C125.32 85.4103 127.67 80.7503 129.55 76.8603C129.571 76.8082 129.572 76.7502 129.553 76.6974C129.534 76.6446 129.496 76.6006 129.447 76.5735C129.398 76.5465 129.341 76.5383 129.286 76.5506C129.231 76.5629 129.183 76.5948 129.15 76.6403C126.615 80.7948 124.308 85.0845 122.24 89.4903C117.958 87.239 113.535 85.265 109 83.5803C108.944 83.5537 108.88 83.5504 108.822 83.5711C108.764 83.5917 108.717 83.6346 108.69 83.6903C108.664 83.746 108.66 83.8099 108.681 83.868C108.701 83.9262 108.744 83.9737 108.8 84.0003ZM130.83 139.26C131.141 138.946 131.353 138.548 131.44 138.114C131.527 137.68 131.485 137.231 131.319 136.821C131.153 136.411 130.87 136.059 130.506 135.808C130.142 135.558 129.712 135.419 129.27 135.41C128.907 135.415 128.551 135.508 128.232 135.681C127.913 135.855 127.642 136.103 127.441 136.406C127.24 136.708 127.116 137.054 127.079 137.416C127.043 137.777 127.095 138.141 127.231 138.478C127.367 138.814 127.584 139.112 127.861 139.346C128.139 139.58 128.469 139.742 128.824 139.819C129.178 139.896 129.547 139.886 129.896 139.788C130.246 139.691 130.566 139.51 130.83 139.26ZM127.68 136.96C127.799 136.707 127.977 136.485 128.199 136.315C128.421 136.145 128.682 136.031 128.957 135.983C129.233 135.935 129.517 135.954 129.783 136.039C130.05 136.124 130.293 136.272 130.49 136.47C130.648 136.628 130.772 136.815 130.855 137.022C130.938 137.229 130.977 137.45 130.972 137.673C130.966 137.896 130.915 138.115 130.822 138.317C130.729 138.52 130.596 138.701 130.43 138.85C130.104 139.149 129.677 139.315 129.235 139.315C128.793 139.315 128.366 139.149 128.04 138.85C127.8 138.615 127.636 138.312 127.572 137.981C127.508 137.651 127.545 137.309 127.68 137V136.96ZM134.92 137.62C135.328 137.808 135.784 137.865 136.226 137.784C136.668 137.704 137.074 137.489 137.39 137.17C137.794 136.743 138.019 136.178 138.019 135.59C138.019 135.003 137.794 134.437 137.39 134.01C137.187 133.798 136.944 133.629 136.674 133.513C136.404 133.398 136.114 133.338 135.82 133.338C135.527 133.338 135.236 133.398 134.966 133.513C134.696 133.629 134.453 133.798 134.25 134.01C134.004 134.27 133.822 134.585 133.721 134.928C133.619 135.271 133.601 135.634 133.666 135.986C133.731 136.338 133.879 136.669 134.097 136.954C134.315 137.238 134.597 137.466 134.92 137.62ZM134.24 134.87C134.359 134.617 134.537 134.395 134.759 134.225C134.981 134.055 135.242 133.941 135.517 133.893C135.793 133.845 136.077 133.864 136.343 133.949C136.61 134.034 136.853 134.182 137.05 134.38C137.208 134.538 137.332 134.725 137.415 134.932C137.498 135.139 137.537 135.36 137.532 135.583C137.526 135.806 137.475 136.025 137.382 136.227C137.289 136.43 137.156 136.611 136.99 136.76C136.665 137.058 136.241 137.224 135.8 137.224C135.359 137.224 134.935 137.058 134.61 136.76C134.356 136.525 134.183 136.216 134.116 135.876C134.05 135.536 134.093 135.184 134.24 134.87ZM144 135.07C144.312 134.758 144.525 134.361 144.613 133.928C144.701 133.496 144.66 133.047 144.495 132.638C144.33 132.228 144.048 131.877 143.684 131.626C143.321 131.376 142.891 131.238 142.45 131.23C142.086 131.231 141.727 131.322 141.406 131.494C141.084 131.665 140.81 131.913 140.607 132.216C140.403 132.518 140.277 132.866 140.239 133.228C140.201 133.591 140.253 133.957 140.389 134.295C140.526 134.633 140.743 134.932 141.022 135.167C141.3 135.401 141.633 135.564 141.989 135.641C142.345 135.717 142.715 135.705 143.065 135.606C143.416 135.506 143.737 135.322 144 135.07ZM140.85 132.78C140.969 132.527 141.147 132.305 141.369 132.135C141.591 131.965 141.852 131.851 142.127 131.803C142.403 131.755 142.687 131.774 142.953 131.859C143.22 131.944 143.463 132.092 143.66 132.29C143.818 132.447 143.941 132.634 144.024 132.84C144.107 133.046 144.147 133.266 144.141 133.488C144.135 133.71 144.085 133.929 143.992 134.13C143.898 134.332 143.765 134.512 143.6 134.66C143.276 134.96 142.851 135.127 142.41 135.127C141.969 135.127 141.544 134.96 141.22 134.66C140.961 134.431 140.78 134.126 140.705 133.788C140.629 133.451 140.663 133.098 140.8 132.78H140.85ZM148 133.44C148.409 133.626 148.866 133.682 149.308 133.6C149.749 133.517 150.155 133.301 150.47 132.98C150.878 132.557 151.105 131.993 151.105 131.405C151.105 130.818 150.878 130.253 150.47 129.83C150.27 129.616 150.029 129.444 149.761 129.325C149.493 129.206 149.204 129.142 148.911 129.138C148.618 129.133 148.326 129.187 148.055 129.298C147.783 129.408 147.537 129.572 147.33 129.78C147.076 130.041 146.887 130.359 146.781 130.708C146.674 131.056 146.653 131.425 146.719 131.783C146.784 132.142 146.935 132.479 147.158 132.768C147.381 133.056 147.67 133.287 148 133.44ZM147.33 130.68C147.449 130.428 147.627 130.209 147.848 130.04C148.07 129.871 148.329 129.758 148.603 129.71C148.878 129.662 149.159 129.681 149.425 129.764C149.691 129.848 149.933 129.994 150.13 130.19C150.336 130.413 150.478 130.688 150.541 130.985C150.604 131.282 150.586 131.59 150.488 131.878C150.391 132.165 150.218 132.421 149.988 132.619C149.757 132.816 149.478 132.948 149.179 133.001C148.88 133.053 148.572 133.024 148.289 132.916C148.005 132.809 147.755 132.627 147.566 132.389C147.377 132.152 147.255 131.868 147.214 131.567C147.172 131.266 147.212 130.96 147.33 130.68Z" fill="black"/>
</svg>
