<svg width="200" height="200" viewBox="0 0 200 200" fill="none" xmlns="http://www.w3.org/2000/svg">
<path d="M112.18 151.4C112.103 151.421 112.038 151.472 111.999 151.541C111.959 151.611 111.949 151.693 111.97 151.77C111.991 151.847 112.042 151.912 112.112 151.952C112.181 151.991 112.263 152.001 112.34 151.98C114.867 151.427 117.236 150.309 119.27 148.71C127 143 126.6 134.9 131 127.49C134.52 121.84 137.61 122.49 137.37 121.76C137.361 121.731 137.346 121.704 137.327 121.681C137.307 121.659 137.283 121.64 137.256 121.627C137.228 121.614 137.199 121.606 137.169 121.605C137.138 121.604 137.108 121.609 137.08 121.62C123.24 126.71 131.06 144.86 112.18 151.4ZM168.19 133.62C168.58 133.21 168.97 132.78 169.35 132.35C172.29 128.78 174.35 123.25 174.15 119.18C174.145 119.136 174.128 119.094 174.101 119.06C174.074 119.025 174.037 118.998 173.996 118.983C173.955 118.967 173.91 118.963 173.866 118.972C173.823 118.98 173.783 119 173.75 119.03C173.45 119.32 174.29 120.92 172.18 125.96C170.18 130.74 168.43 131.96 166.46 134.19C164.695 136.228 163.354 138.596 162.514 141.158C161.675 143.72 161.354 146.423 161.57 149.11C161.582 149.166 161.612 149.217 161.657 149.254C161.702 149.29 161.758 149.31 161.815 149.31C161.873 149.31 161.929 149.29 161.973 149.254C162.018 149.217 162.049 149.166 162.06 149.11C161.992 146.249 162.499 143.403 163.552 140.742C164.605 138.081 166.182 135.659 168.19 133.62ZM80.3902 90.4399C81.3902 89.7499 81.3202 87.6399 80.3902 86.8599C80.1272 86.6477 79.8206 86.496 79.4923 86.4156C79.1641 86.3353 78.8221 86.3283 78.4908 86.3951C78.1595 86.462 77.847 86.601 77.5755 86.8023C77.3041 87.0036 77.0803 87.2623 76.9202 87.5599C76.7346 88.0252 76.7011 88.5373 76.8247 89.0227C76.9482 89.5081 77.2224 89.9419 77.6079 90.2618C77.9933 90.5817 78.4702 90.7713 78.97 90.8033C79.4699 90.8353 79.9671 90.7081 80.3902 90.4399ZM77.6402 88.1499C77.9402 87.0099 79.9102 86.8499 80.2102 87.9899C80.4102 88.7699 80.3202 89.3199 79.9202 89.6199C79.6798 89.7694 79.4063 89.8576 79.1239 89.8768C78.8414 89.896 78.5586 89.8456 78.3002 89.7299C78.0296 89.578 77.8176 89.34 77.698 89.0536C77.5784 88.7673 77.558 88.4492 77.6402 88.1499ZM114.56 71.9399C114.522 71.9372 114.483 71.9424 114.447 71.9552C114.411 71.9681 114.377 71.9882 114.349 72.0145C114.321 72.0408 114.299 72.0726 114.283 72.108C114.268 72.1433 114.26 72.1814 114.26 72.2199C114.26 73.2199 112.57 74.2199 112.26 74.3199C112.2 74.3345 112.149 74.3722 112.117 74.4247C112.085 74.4772 112.076 74.5403 112.09 74.5999C112.105 74.6596 112.142 74.711 112.195 74.7429C112.247 74.7748 112.31 74.7845 112.37 74.7699C115 74.2299 115.4 71.9199 114.56 71.9399ZM111.05 70.4099C110.93 70.3399 110.4 69.9499 110.21 69.7999C110.21 69.6699 110.68 67.9999 110.77 67.6799C110.86 67.3599 110.45 67.2799 110.34 67.5399C109.922 68.3506 109.587 69.2016 109.34 70.0799C109.42 70.3699 110.81 70.7499 110.91 70.7499C110.952 70.7556 110.994 70.7473 111.031 70.7263C111.067 70.7054 111.096 70.6729 111.112 70.634C111.128 70.5951 111.13 70.5521 111.119 70.5115C111.108 70.471 111.084 70.4352 111.05 70.4099ZM107.75 65.0499C107.736 64.9635 107.691 64.885 107.624 64.8283C107.558 64.7717 107.473 64.7406 107.385 64.7406C107.298 64.7406 107.213 64.7717 107.146 64.8283C107.079 64.885 107.035 64.9635 107.02 65.0499C106.982 65.7394 106.982 66.4305 107.02 67.1199C107.083 67.2225 107.178 67.3011 107.29 67.3436C107.403 67.386 107.526 67.3897 107.641 67.3541C107.756 67.3185 107.855 67.2457 107.924 67.1471C107.993 67.0486 108.026 66.9299 108.02 66.8099C107.882 66.2317 107.791 65.6431 107.75 65.0499ZM114.74 66.7999C114.612 66.2265 114.522 65.6452 114.47 65.0599C114.47 64.9618 114.431 64.8677 114.362 64.7983C114.292 64.7289 114.198 64.6899 114.1 64.6899C114.002 64.6899 113.908 64.7289 113.839 64.7983C113.769 64.8677 113.73 64.9618 113.73 65.0599C113.694 65.7261 113.694 66.3938 113.73 67.0599C113.736 67.1374 113.758 67.2126 113.796 67.2804C113.834 67.3481 113.886 67.4067 113.949 67.452C114.012 67.4973 114.085 67.5282 114.161 67.5426C114.237 67.5569 114.316 67.5543 114.391 67.535C114.466 67.5156 114.536 67.48 114.596 67.4306C114.656 67.3812 114.704 67.3193 114.737 67.2492C114.771 67.179 114.788 67.1025 114.789 67.0248C114.789 66.9472 114.773 66.8704 114.74 66.7999Z" fill="white"/>
<path d="M193 53.18C192.93 46.95 190.84 44.49 184.39 44.68C182.55 44.68 149.74 45.01 147.39 45.09C145.815 45.0904 144.256 45.4137 142.81 46.04C141.98 46.37 137.64 48.54 137.16 49.69C136.64 50.51 137.25 73.87 137.16 78.69C136.465 78.2943 135.751 77.9339 135.02 77.61C134.888 76.9531 134.608 76.3351 134.2 75.8031C133.793 75.271 133.27 74.839 132.67 74.54C131.75 74.18 130.57 74.61 129.89 73.96C129.21 73.31 130.43 72.96 130.56 71.96C130.556 71.2666 130.476 70.5758 130.32 69.9C129.717 66.275 128.875 62.6939 127.8 59.18C126.9 56.29 125.96 53.84 123.37 52.27C123.37 47.41 122.88 18.93 122.61 17.42C122.344 15.9297 121.549 14.5855 120.372 13.634C119.194 12.6825 117.713 12.1875 116.2 12.24C116.1 12.24 47.2801 12.24 47.2001 12.32C44.4501 13.96 43.7101 17.62 43.5301 20.32C43.4701 21.67 44.6501 48.93 45.1201 57.59C40.2501 57.69 15.6501 58.35 14.2401 59.1C11.0501 59.88 7.52011 62.1 6.83011 65.71C6.40011 68.03 7.27011 112.6 7.56011 114.71C7.76779 116.989 8.78613 119.118 10.4301 120.71C12.2201 122.28 14.6601 122.57 16.8101 122.65L62.4401 121.79C57.9801 131.89 52.8401 146.21 49.4401 155.12C49.4241 155.145 49.4157 155.175 49.4157 155.205C49.4157 155.235 49.4241 155.265 49.4401 155.29C50.3603 156.194 51.3649 157.008 52.4401 157.72C50.8101 163.29 50.9901 163.6 50.6301 164.05C47.5401 167.84 43.8101 170.05 40.1301 170.41C38.4201 170.6 36.7301 170.9 36.1301 172.56C35.6401 174.07 36.9401 175.08 38.4601 175.5C39.4601 175.77 46.2801 177.28 47.2901 177.4C48.1851 177.55 49.1033 177.346 49.8501 176.83C50.5701 176.3 52.9401 173.5 53.8501 172.66C52.2001 180.66 51.0501 178.11 54.9801 179.82C55.035 179.849 55.0957 179.866 55.1578 179.869C55.2199 179.872 55.2819 179.861 55.3393 179.837C55.3967 179.813 55.4481 179.777 55.4897 179.731C55.5314 179.684 55.5623 179.63 55.5801 179.57C56.2801 177.57 61.0201 166.14 62.9501 163.17C63.4201 175.25 63.3401 174.62 63.5101 174.67C64.1801 174.84 64.9101 175 65.6601 175.15C65.6601 176.83 65.7101 178.55 65.8501 180.43C65.8501 180.49 65.7701 180.59 65.6901 180.75C63.2101 186.19 60.4301 188.41 57.4101 189.75C56.0701 190.35 54.2201 191.17 54.2701 193.02C54.2701 194.62 55.9101 195.13 57.5001 195.07C59.8901 194.99 62.9801 194.67 64.3801 194.6C68.3801 194.36 68.4801 193.6 70.1801 190.17C70.5701 189.38 71.0301 188.44 71.2901 187.98C71.7601 193.6 71.1401 194.43 71.9101 194.39C74.0001 194.28 74.9101 194.85 74.9101 194.1C74.9901 192.04 75.9101 183.94 76.3901 181.95C76.3901 181.72 76.2301 181.59 75.9901 181.54C76.2901 179.68 76.9901 176.02 77.0801 175.35C77.5801 175.28 78.0801 175.2 78.4701 175.11C78.5801 175.11 78.4701 175.64 80.1601 168.67C92.3001 173.46 105.25 174.61 116.87 171.88C117.28 173.47 120.25 184.31 121.87 189.06C122.422 190.612 123.157 192.092 124.06 193.47C124.29 193.69 124.68 194.08 125.06 194.08C125.44 194.08 125.86 193.55 125.96 193.01C126.06 192.47 124.49 176.7 123.96 171.01C126.336 170.421 128.64 169.573 130.83 168.48L134.07 179.24C134.165 179.4 134.308 179.527 134.478 179.602C134.649 179.677 134.839 179.696 135.021 179.657C135.203 179.619 135.368 179.524 135.494 179.386C135.619 179.249 135.699 179.075 135.72 178.89L135.41 166C136.924 165.013 138.374 163.931 139.75 162.76C140.375 163.364 141.078 163.882 141.84 164.3C141.918 164.343 142.011 164.354 142.097 164.329C142.183 164.305 142.256 164.248 142.3 164.17C143.132 162.913 144.065 161.725 145.09 160.62C144.89 161.91 144.5 164.55 144.45 165.37C144.449 165.423 144.458 165.476 144.478 165.525C144.497 165.574 144.527 165.618 144.564 165.656C144.602 165.693 144.646 165.723 144.695 165.742C144.745 165.762 144.797 165.771 144.85 165.77C145.912 165.737 146.972 165.875 147.99 166.18C144.73 167.75 143.24 169.08 143.44 170.18C143.831 172.144 144.379 174.074 145.08 175.95C145.62 177.51 146.18 179.13 147.86 179.81C155.56 183.07 167 180.69 174.73 177.44C181.29 174.87 182.25 170.71 181.67 164.83C181.55 163.71 180.25 163.58 177.52 163.65L184.17 155.24C186.17 152.85 184.43 152.93 183.8 148.24C184.402 149.133 185.126 149.937 185.95 150.63C185.999 150.668 186.055 150.696 186.116 150.712C186.176 150.727 186.239 150.73 186.3 150.72C186.57 150.67 186.36 150.81 188.84 146.35C188.887 146.269 188.905 146.174 188.89 146.081C188.876 145.988 188.83 145.903 188.76 145.84C187.67 144.94 185.04 142.84 185.04 142.84C186.396 142.519 187.732 142.118 189.04 141.64C189.352 141.56 189.635 141.392 189.854 141.156C190.074 140.92 190.222 140.627 190.28 140.31C190.41 139.53 190.42 123.82 190.44 121.68C190.44 121.33 189.88 121.23 189.82 121.61C188.65 129.54 183.28 136.14 176.42 138.11C176.64 137.22 177.2 135.29 176.89 134.76C175.759 134.048 174.556 133.458 173.3 133C174.55 132.29 177.44 130.44 177.65 129.87C177.78 129.54 177.14 114.11 177.11 112.42C177.105 112.35 177.078 112.284 177.033 112.231C176.988 112.177 176.928 112.14 176.86 112.123C176.792 112.106 176.721 112.111 176.656 112.138C176.591 112.164 176.537 112.211 176.5 112.27C174.564 116.093 171.7 119.37 168.17 121.8C167.76 122.08 164.81 123.65 164.58 123.86C163.84 124.57 164.76 125.44 165.15 125.99C165.43 126.37 166.39 127.66 166.58 127.93C163.06 128.36 162.13 127.15 161.95 127.93C161.604 128.949 161.138 129.922 160.56 130.83C160.766 131.706 161.03 132.568 161.35 133.41C160.764 133.506 160.166 133.506 159.58 133.41C159.476 133.388 159.367 133.405 159.274 133.458C159.182 133.512 159.113 133.598 159.08 133.7C158.8 134.61 158.58 135.37 158.38 136.08C157.168 134.024 155.832 132.044 154.38 130.15C153.67 124.73 151.11 118.4 145.7 117.56C149.77 115.86 152.44 111.49 153.08 107.06C155 107.06 182.74 106.98 183.86 107.06C189.93 107.23 192.64 104.91 193.21 98.72C193.44 96.25 193 53.63 193 53.18ZM54.9101 172.24C54.9353 172.134 54.9194 172.023 54.8656 171.928C54.8118 171.833 54.724 171.762 54.6201 171.73C53.8101 171.43 53.1901 172.14 52.7401 172.65C51.6009 174.037 50.3501 175.328 49.0001 176.51C48.2501 176.87 39.5201 175.06 38.4301 174.72C37.8434 174.587 37.333 174.228 37.0101 173.72C36.8838 173.351 36.8976 172.948 37.0488 172.589C37.2 172.229 37.478 171.938 37.8301 171.77C38.6001 171.3 39.1701 171.34 41.3301 170.94C43.4901 170.54 45.6301 170.15 49.3901 166.61C49.9139 166.108 50.4018 165.57 50.8501 165C51.4745 166.388 52.5254 167.541 53.8501 168.29C55.6248 169.078 57.6068 169.271 59.5001 168.84C58.5001 170.84 55.7401 177.09 55.0501 179C54.5001 178.78 53.9401 178.58 53.3901 178.42C54.0095 176.389 54.5169 174.326 54.9101 172.24ZM142.73 117.48C141.324 117.54 139.927 117.741 138.56 118.08C134.081 118.586 129.578 118.847 125.07 118.86C124.41 114.86 124.61 115.6 124.44 114.49C124.37 114.01 124.27 113.35 124.62 113.14C129.41 111 134.39 109.06 139.16 106.97C140.16 107.7 140.24 107.61 140.33 107.55C140.373 107.504 140.397 107.443 140.397 107.38C140.397 107.317 140.373 107.256 140.33 107.21C139.94 106.816 139.529 106.442 139.1 106.09C135.261 102.657 132.587 98.113 131.45 93.09C131.437 93.0303 131.4 92.9784 131.349 92.9456C131.297 92.9127 131.235 92.9017 131.175 92.915C131.115 92.9283 131.063 92.9647 131.031 93.0163C130.998 93.0678 130.987 93.1303 131 93.19C131.847 98.4137 134.549 103.157 138.61 106.55L124.82 112.25C124.421 112.367 124.071 112.609 123.82 112.94C123.13 112.752 122.506 112.375 122.02 111.85C119.42 109.76 118.38 111.19 115.02 113.85C114.695 114.095 114.388 114.362 114.1 114.65C112.324 113.07 110.554 111.484 108.79 109.89C108.34 109.23 104.24 95.09 102.56 89.41C103.859 86.2612 105.954 83.5043 108.64 81.41C108.951 82.3585 109.342 83.2785 109.81 84.16C110.56 84.88 111.53 84.53 112.47 84.3C112.211 84.8374 112.062 85.4211 112.031 86.0169C112 86.6127 112.088 87.2087 112.29 87.77C112.998 89.3573 114.104 90.7351 115.5 91.77C118.92 94.77 118.75 94.69 118.95 94.69C119.042 94.6854 119.13 94.6473 119.196 94.5829C119.262 94.5185 119.303 94.4321 119.31 94.34C119.65 90.85 120.77 89.89 123.93 88.78C125.658 88.2158 127.121 87.0392 128.042 85.4718C128.962 83.9044 129.279 82.0543 128.93 80.27C131.02 80.2858 133.103 80.0167 135.12 79.47C135.215 79.4485 135.298 79.3902 135.351 79.3077C135.403 79.2253 135.421 79.1255 135.4 79.03C135.4 78.86 135.33 78.66 135.28 78.45C149.87 85.54 158.76 107.63 146.99 115.84C145.71 116.697 144.255 117.258 142.73 117.48ZM146.09 118.62C148.66 119.17 150.81 121.33 152.21 125.13C158.89 143.18 143.32 165.05 123.99 170.13C123.87 168.92 123.21 161.9 123.08 161.38C122.984 160.921 122.72 160.514 122.34 160.24C121.11 159.56 119 160.31 117.88 160.97C116.812 161.679 115.858 162.545 115.05 163.54C115.05 163.86 116.45 169.89 116.75 171.12C104.596 173.662 91.9629 172.577 80.4201 168C82.2001 160.6 84.5601 150.47 85.2201 147.33C92.1001 149.47 101.77 149.27 101.87 149.26C101.902 149.252 101.93 149.233 101.951 149.206C101.971 149.18 101.982 149.148 101.982 149.115C101.982 149.082 101.971 149.05 101.951 149.024C101.93 148.997 101.902 148.978 101.87 148.97C96.3201 147.12 91.5301 142.35 88.3901 135.53C83.5601 125.34 73.5401 125.46 69.6401 130.53C64.0001 137.85 63.0901 159.15 63.0001 161.72C62.6501 162.36 60.6401 166.29 59.8801 167.89C53.8801 169.32 52.1701 165.89 51.4401 164.42C51.3201 164.17 51.3801 164.83 53.2401 158.26C54.2401 158.75 61.3501 161.26 61.3601 160.52C61.4401 152.02 63.5001 131.8 69.0801 127.15C73.0801 123.87 81.7301 124.44 85.5601 127.28C87.995 129.502 89.9868 132.166 91.4301 135.13C94.6401 142.02 100.17 147.13 106.31 148.41C114.18 147.72 123.31 135.18 125.92 127.16C130.74 121.05 138.69 117.55 146.09 118.62ZM161.74 159.29C161.753 159.35 161.79 159.402 161.841 159.434C161.893 159.467 161.955 159.478 162.015 159.465C162.075 159.452 162.127 159.415 162.16 159.364C162.192 159.312 162.203 159.25 162.19 159.19C161.56 155.97 159.78 153.19 158.66 150.19C156.72 145.06 158.13 139.55 159.77 134.34C160.502 134.477 161.258 134.379 161.93 134.06C162.48 133.63 162.04 132.9 161.42 131.06C161.93 130.289 162.33 129.451 162.61 128.57C164.173 128.94 165.798 128.96 167.37 128.63C167.431 128.614 167.488 128.585 167.535 128.543C167.582 128.502 167.619 128.449 167.643 128.391C167.666 128.333 167.675 128.269 167.67 128.207C167.664 128.144 167.644 128.083 167.61 128.03C166.94 127.15 165.17 124.74 165.08 124.56C164.99 124.38 165.08 124.4 165.37 124.27C170.15 122.095 174.069 118.39 176.51 113.74C176.63 117.01 177.02 129.18 176.91 129.67C175.356 130.795 173.718 131.798 172.01 132.67C171.936 132.711 171.875 132.774 171.836 132.849C171.797 132.925 171.781 133.011 171.791 133.095C171.8 133.18 171.835 133.26 171.89 133.325C171.945 133.39 172.018 133.437 172.1 133.46C173.515 133.944 174.886 134.546 176.2 135.26C176.38 135.55 175.75 137.84 175.64 138.43L174.64 138.63C174.541 138.656 174.455 138.719 174.401 138.807C174.347 138.894 174.329 138.999 174.35 139.1C174.61 140.87 175.2 145.23 175.2 145.23C172.33 142.56 172.35 141.08 171.73 141.02C171.669 141.012 171.606 141.02 171.548 141.043C171.491 141.066 171.44 141.102 171.4 141.15C166.698 146.606 164.058 153.538 163.94 160.74C163.951 160.794 163.981 160.843 164.024 160.877C164.066 160.912 164.12 160.931 164.175 160.931C164.23 160.931 164.284 160.912 164.327 160.877C164.369 160.843 164.399 160.794 164.41 160.74C164.787 153.926 167.315 147.407 171.63 142.12C172.625 143.833 173.93 145.346 175.48 146.58C175.546 146.639 175.629 146.675 175.717 146.684C175.805 146.693 175.893 146.674 175.97 146.629C176.046 146.585 176.107 146.518 176.143 146.437C176.179 146.356 176.188 146.266 176.17 146.18C176.17 146.18 175.45 141.31 175.17 139.33C181.98 138.12 187.83 132.33 189.8 124.95C189.8 129.06 189.66 139.25 189.66 139.35C189.66 140 189.66 140.62 189.08 140.91C187.44 141.486 185.771 141.977 184.08 142.38C184.011 142.398 183.948 142.435 183.897 142.486C183.847 142.537 183.811 142.6 183.794 142.67C183.777 142.739 183.778 142.812 183.799 142.881C183.819 142.949 183.858 143.011 183.91 143.06C184.38 143.44 187.08 145.65 187.97 146.36C187.97 146.36 186.75 148.69 186.13 149.84C185.116 148.902 184.276 147.791 183.65 146.56C183.609 146.49 183.547 146.435 183.472 146.404C183.398 146.373 183.315 146.367 183.237 146.388C183.158 146.408 183.089 146.454 183.039 146.517C182.989 146.581 182.961 146.659 182.96 146.74C183.24 153.42 185.38 152.55 183.61 154.74C177.51 162.41 176.44 164.89 169.87 166.83C171.19 160.83 175.71 158.4 177.52 154.07C178.52 151.7 178.3 149.07 179.09 146.69C179.64 145.038 180.539 143.524 181.726 142.251C182.914 140.977 184.361 139.974 185.97 139.31C186.028 139.29 186.076 139.248 186.104 139.193C186.131 139.137 186.135 139.073 186.115 139.015C186.095 138.957 186.053 138.909 185.998 138.881C185.942 138.854 185.878 138.85 185.82 138.87C183.724 139.609 181.875 140.916 180.479 142.645C179.082 144.373 178.193 146.456 177.91 148.66C177.48 151.73 177.57 153.24 175.65 155.93C173.53 158.88 170.06 161.49 168.94 167.08C167.201 167.513 165.421 167.761 163.63 167.82C163.42 166.03 162.32 164.98 161.54 164.94C160.82 163.68 153.23 152.13 150.43 149.6C153.526 144.028 154.95 137.681 154.53 131.32C155.73 133.09 157.78 136.41 158.14 137.06C154.65 150.52 160.35 152.54 161.74 159.29ZM145.97 159.73C145.97 159.659 145.949 159.59 145.911 159.531C145.873 159.472 145.819 159.425 145.754 159.395C145.69 159.366 145.619 159.355 145.549 159.365C145.479 159.375 145.414 159.404 145.36 159.45C144.081 160.719 142.92 162.102 141.89 163.58C141.301 163.236 140.748 162.834 140.24 162.38C142.657 160.28 144.849 157.934 146.78 155.38C157.4 168.12 156.89 167.75 157.19 167.51C157.214 167.494 157.234 167.473 157.249 167.45C157.264 167.426 157.275 167.399 157.279 167.371C157.284 167.343 157.283 167.314 157.276 167.286C157.269 167.259 157.257 167.233 157.24 167.21C156.54 166.15 149.41 157.21 147.24 154.7C148.271 153.276 149.212 151.79 150.06 150.25C154.06 154.16 160.27 164.45 160.85 165.42C160.298 166.214 160.04 167.176 160.12 168.14C158.857 168.493 157.529 168.551 156.24 168.31C154.71 168.01 148.99 165.2 145.24 165.09C145.48 164 145.86 160.67 146 159.73H145.97ZM119.79 161H119.96C120.74 160.82 121.96 160.55 122.25 161.34C122.4 161.88 125.42 191.71 125.42 192.63C125.436 192.775 125.42 192.922 125.374 193.06C125.327 193.198 125.251 193.324 125.15 193.43C122.55 192.43 116.15 165.9 115.9 163.65C116.908 162.403 118.261 161.482 119.79 161ZM13.3101 113.78C13.3101 111.49 11.7901 66.09 11.9401 64.45C12.2001 61.36 13.3101 59.97 15.7601 59.65C18.3501 59.15 42.5301 58.46 45.1701 58.39C45.2301 59.39 45.2801 60.09 45.3001 60.22C45.411 61.0067 45.7862 61.7324 46.3641 62.2776C46.942 62.8228 47.6882 63.1551 48.4801 63.22C48.4801 63.12 47.8201 63.22 68.4801 63.29C68.4801 66.41 68.6701 81.07 68.6801 81.76C62.8001 81.98 56.7401 82.22 55.5801 82.33C55.4201 82.33 55.2801 82.62 55.3401 82.76C57.0801 87.06 64.8301 104.52 67.0001 109C67.2025 109.509 67.5503 109.947 68.0001 110.26C68.2801 110.68 68.6101 111.15 69.0001 111.62C65.8301 114.15 64.6901 116.95 62.8501 121.05C54.3801 121.23 20.0501 121.94 19.2801 121.91C17.1401 121.82 15.6301 121.2 14.6901 120.02C13.2601 118.32 13.3201 116 13.3101 113.78ZM129 73.84C129.21 74.6 130 75.01 131.22 75.04C133.32 74.95 134.22 76.76 134.6 78.84C132.556 79.2395 130.482 79.4703 128.4 79.53C128.34 79.5306 128.281 79.5452 128.227 79.5727C128.173 79.6001 128.127 79.6395 128.091 79.688C128.055 79.7364 128.031 79.7925 128.02 79.8519C128.01 79.9112 128.013 79.9722 128.03 80.03C128.349 81.1715 128.352 82.3784 128.039 83.5215C127.725 84.6646 127.107 85.7011 126.25 86.52C123.56 89.11 119.25 87.68 118.62 93.65C117.72 92.87 114.39 90.04 113.71 89.21C112.54 87.86 112.07 85.62 113.27 84.21C115.84 83.79 118.437 83.5594 121.04 83.52C121.098 83.52 121.154 83.4968 121.196 83.4556C121.237 83.4143 121.26 83.3584 121.26 83.3C121.26 83.2417 121.237 83.1857 121.196 83.1444C121.154 83.1032 121.098 83.08 121.04 83.08C118.045 82.8676 115.035 83.0831 112.1 83.72C110.98 84.03 110.43 84.25 109.93 83.2C109.68 82.67 108.19 78.13 107.93 77.29C107.47 76.2 107.75 76.53 108.59 76.01C109.413 76.7055 110.337 77.272 111.33 77.69C111.33 77.81 111.85 79.4 111.93 79.69C111.964 79.9303 112.084 80.15 112.268 80.3082C112.452 80.4665 112.687 80.5524 112.93 80.55C115.262 80.7642 117.612 80.4228 119.786 79.5537C121.961 78.6846 123.898 77.3125 125.44 75.55C125.471 75.5081 125.485 75.4563 125.479 75.4046C125.474 75.353 125.45 75.3051 125.411 75.2703C125.373 75.2355 125.323 75.2162 125.271 75.2162C125.219 75.2161 125.169 75.2353 125.13 75.27C123.581 76.8354 121.721 78.0575 119.669 78.8569C117.617 79.6563 115.42 80.0151 113.22 79.91C112.52 79.86 112.61 80.01 112.02 77.91C114.72 78.67 115.4 77.64 114.44 78.59C114.409 78.6274 114.392 78.6745 114.391 78.7233C114.391 78.772 114.407 78.8194 114.438 78.8572C114.469 78.895 114.512 78.921 114.56 78.9306C114.607 78.9403 114.657 78.933 114.7 78.91C118.338 76.1904 120.991 72.3609 122.26 68C122.269 67.9718 122.273 67.942 122.27 67.9124C122.267 67.8829 122.259 67.8542 122.245 67.828C122.231 67.8018 122.212 67.7788 122.189 67.7602C122.165 67.7417 122.139 67.728 122.11 67.72C121.59 67.54 121.94 68.57 119.5 72.56C118.5 68.56 119.17 64.33 118.09 60.31C118.076 60.253 118.039 60.2041 117.988 60.1741C117.938 60.1441 117.877 60.1354 117.82 60.15C117.763 60.1646 117.714 60.2012 117.684 60.2519C117.654 60.3025 117.646 60.363 117.66 60.42C117.835 61.2707 117.949 62.1329 118 63C115.87 60.89 111.37 57.52 107.82 58.29C107.055 58.3135 106.331 58.6374 105.803 59.1914C105.275 59.7454 104.987 60.4849 105 61.25C104.14 60.09 104.74 58.32 105.52 57.34C107.58 54.65 111.24 53.34 114.89 52.34C118.12 51.48 122.44 51.6 124.89 54.52C125.953 55.9773 126.721 57.6282 127.15 59.38C128.427 63.3277 129.318 67.3901 129.81 71.51C129.848 71.6761 129.84 71.8495 129.788 72.0116C129.735 72.1736 129.639 72.3183 129.51 72.43C129.31 72.6009 129.159 72.8206 129.069 73.0677C128.98 73.3149 128.956 73.5809 129 73.84ZM67.7301 108.76C66.7901 106.76 57.5001 86.16 56.0201 82.76C59.3301 82.76 96.6801 81.39 97.3301 81.37C98.6001 85.45 106 110.09 106 110.3C106 110.3 97.1601 110.52 92.3901 110.71C84.3401 106.65 76.8901 107.09 71.4701 109.96C68.4101 109.83 68.2701 109.89 67.7301 108.76ZM105.73 67.28C105.59 64.28 105.73 62.19 106.2 61.98C107.92 61.2 111.13 60.98 114.7 62.11C115.15 62.26 116.59 63.01 118.04 63.62C118.2 66.82 118.04 70.21 119.04 73.31C118.156 74.86 117.021 76.2524 115.68 77.43C109.63 78.23 106 73.39 105.71 67.28H105.73ZM114.91 127.08C114.67 127.54 118.74 130.6 119.18 130.93C120.62 132.29 118.86 133.03 117.4 131.72C109.4 124.53 102.58 116.29 93.6901 111.37C98.8701 111.2 105.28 111.01 106.38 111C107.49 112.07 120.38 124.14 123.71 127C114.41 127.07 115 126.92 114.89 127.08H114.91ZM124.73 126.94C124.63 126.85 107.73 111.58 107.08 110.82C106.7 110.18 99.6901 86.39 98.0801 81.6C99.0679 82.2736 99.8004 83.2598 100.16 84.4C100.76 86.11 107.57 108.91 107.6 109.02C107.682 109.574 107.929 110.09 108.31 110.5C110.94 113.03 122.1 123.15 125.73 126.15C125.52 126.41 125.31 126.67 125.11 126.94H124.73ZM124 117.33C122.26 117.19 121.71 116.99 121.28 117.52C121.14 117.74 120.74 118.23 120.23 118.12C120.142 118.099 120.058 118.061 119.986 118.006C119.913 117.952 119.852 117.884 119.807 117.805C119.762 117.726 119.734 117.639 119.724 117.548C119.714 117.458 119.723 117.367 119.75 117.28C120.24 116.82 120.75 116.42 121.21 115.93C121.235 115.895 121.247 115.854 121.245 115.811C121.243 115.769 121.227 115.728 121.2 115.696C121.172 115.664 121.134 115.642 121.093 115.634C121.051 115.625 121.008 115.631 120.97 115.65C120.46 115.98 119.97 116.51 119.39 116.86C119.342 116.861 119.295 116.872 119.252 116.892C119.209 116.913 119.171 116.943 119.14 116.98C119.02 117.029 118.891 117.049 118.762 117.039C118.633 117.03 118.508 116.99 118.397 116.925C118.285 116.859 118.191 116.768 118.12 116.66C118.05 116.552 118.005 116.428 117.99 116.3C117.99 115.5 118.85 114.97 119.35 114.38C119.55 114.18 119.25 113.88 119.04 114.07C118.504 114.522 118.006 115.017 117.55 115.55C116.974 115.733 116.386 115.877 115.79 115.98C115.52 115.98 115.79 116.15 114.61 115.14C115.84 113.986 117.18 112.954 118.61 112.06C121.04 110.46 121.49 113.23 123.68 113.55C123.678 114.817 123.785 116.082 124 117.33ZM126.25 125.57L116.18 116.57C116.545 116.498 116.906 116.404 117.26 116.29C117.252 116.507 117.295 116.723 117.384 116.921C117.474 117.119 117.609 117.293 117.778 117.43C117.947 117.567 118.145 117.662 118.357 117.709C118.569 117.756 118.789 117.753 119 117.7C119.04 117.912 119.13 118.112 119.261 118.283C119.393 118.454 119.564 118.591 119.759 118.684C119.954 118.776 120.168 118.821 120.383 118.816C120.599 118.81 120.81 118.753 121 118.65C122.38 118.02 121 117.78 123.23 117.98C123.52 117.98 123.83 118.04 124.13 118.05C124.22 118.52 124.31 118.95 124.41 119.36C124.434 119.442 124.484 119.513 124.553 119.564C124.622 119.615 124.705 119.641 124.79 119.64C142.67 119.26 133.89 116.79 126.23 125.57H126.25ZM102.25 88.33C101.12 84.54 100.53 81.48 98.2501 80.7C98.2501 80.82 99.1001 80.57 69.5001 81.7C69.5001 76.83 69.2901 65.05 69.2601 63.26H105.11C104.83 67.59 105.11 72.26 108.11 75.48C107.75 75.62 107.11 75.92 106.96 76.17C107.329 77.7862 107.824 79.3711 108.44 80.91C105.757 82.8034 103.611 85.3599 102.21 88.33H102.25ZM98.1401 57.42C98.1401 56.02 97.8201 48.49 97.7501 47.11H100.3C100.3 48.53 100.49 56.03 100.55 57.41C99.7501 57.39 98.9401 57.4 98.1401 57.42ZM83.4901 57.72C83.5001 55 83.1501 32 83.1001 29H85.6501C85.6501 36.6 85.8701 55.61 85.9101 57.68L83.4901 57.72ZM67.7101 32.86H70.2701C70.2701 39.43 70.4801 56.02 70.5301 57.99H68.1101C68.1201 55.53 67.7701 35.6 67.7101 32.86ZM46.0001 59.78C45.8601 58.93 44.7001 32.3 44.2301 22.1C44.1201 18.96 44.9501 15.1 47.0601 13.31C47.0601 20.31 47.9601 58.94 48.1601 62.44C47.5716 62.2702 47.0491 61.9242 46.663 61.4487C46.2768 60.9732 46.0455 60.3909 46.0001 59.78ZM137.75 51.47C137.668 50.8172 137.824 50.1567 138.19 49.61C138.973 48.9937 139.813 48.4545 140.7 48C139.7 49.8 139.96 49.3 140.49 80.9C139.665 80.2713 138.807 79.6871 137.92 79.15C137.82 74.11 137.77 55.79 137.78 51.47H137.75ZM146.49 62.58C146.955 61.9204 147.572 61.3831 148.29 61.0139C149.007 60.6448 149.803 60.4547 150.61 60.46C154.68 60.46 156.16 65.3 156.96 69.24C157.66 72.33 157.71 75.97 159.96 78.49C170.42 87.97 171.21 74.74 177.57 75.25C179.57 75.48 180.9 77.31 182.33 78.63C182.941 79.3166 183.799 79.7343 184.716 79.7923C185.634 79.8504 186.537 79.5441 187.23 78.94V93.15C184.77 93.15 153.53 92.92 150.1 92.96C149.265 91.2122 148.281 89.5394 147.16 87.96C147.28 86.75 146.54 63.66 146.52 62.58H146.49ZM150.49 93.64C155.09 93.71 184.28 93.79 187.31 93.79C187.314 94.1709 187.338 94.5514 187.38 94.93C187.387 95.0105 187.424 95.0856 187.483 95.1409C187.542 95.1962 187.619 95.2279 187.7 95.23C188.29 95.23 188.02 96.14 187.92 69.02C187.92 68.9537 187.894 68.8901 187.847 68.8432C187.8 68.7963 187.736 68.77 187.67 68.77C187.604 68.77 187.54 68.7963 187.493 68.8432C187.446 68.8901 187.42 68.9537 187.42 69.02C187.42 70.8 187.31 76.68 187.3 77.84C187.071 78.2015 186.759 78.5034 186.39 78.7211C186.021 78.9388 185.606 79.066 185.179 79.0924C184.752 79.1187 184.324 79.0434 183.931 78.8727C183.539 78.7019 183.192 78.4405 182.92 78.11C180.03 75.11 177.17 72.61 172.99 76.47C169.57 80 167.69 82.98 162.99 79.93C161.087 78.916 159.653 77.202 158.99 75.15C157.41 69.48 157.85 60.73 151.17 59.57C150.277 59.4787 149.375 59.6078 148.544 59.9461C147.712 60.2843 146.976 60.8213 146.4 61.51C146.4 59.99 146.29 58.51 146.23 56.97C146.23 56.9063 146.205 56.8453 146.16 56.8003C146.115 56.7553 146.054 56.73 145.99 56.73C145.926 56.73 145.865 56.7553 145.82 56.8003C145.775 56.8453 145.75 56.9063 145.75 56.97C145.75 58.63 146.27 81.81 146.43 86.9C144.889 84.8833 143.117 83.0541 141.15 81.45C141.15 77.64 140.81 52.9 140.77 51.37C140.71 48.59 141.82 46.98 144.38 46.31C146.48 45.73 184.24 45.15 187.83 45.64C190.21 45.94 191.57 48.27 191.91 50.29C192.33 52.8 192.45 94.29 192.46 94.84C192.54 99.74 191.96 105.33 186.86 106.02C185.71 106.18 157.26 106.25 153.13 106.21C153.258 101.872 152.36 97.5655 150.51 93.64H150.49ZM121.21 15.8C122.41 17.9 121.73 17.32 122.58 51.86C118.44 49.99 112.58 51.71 108.58 53.86V24.23C108.58 24 109.1 24.07 105.58 24.07C105.36 24.07 105.38 22.01 106.12 55.52C105.52 56.0617 104.998 56.6843 104.57 57.37H101.21C101.21 56.07 100.83 46.85 100.79 46.77C100.779 46.718 100.749 46.6716 100.707 46.6388C100.665 46.606 100.613 46.5887 100.56 46.59C99.4796 46.5538 98.398 46.5771 97.3201 46.66C97.2881 46.6818 97.2628 46.712 97.2469 46.7473C97.231 46.7826 97.2252 46.8216 97.2301 46.86C97.2301 47.86 97.4101 55.98 97.4801 57.42L93.7101 57.5C93.9001 40.42 93.9701 41.32 93.7101 41.3C91.0001 41.41 90.9401 41.36 90.9401 41.56V57.56L86.5401 57.65C86.5401 55.42 86.2001 30.22 86.1301 28.76C86.1331 28.6942 86.111 28.6298 86.0683 28.5797C86.0256 28.5296 85.9655 28.4975 85.9001 28.49C85.9001 28.49 82.7701 28.49 82.6701 28.59C82.3801 28.82 82.8301 56.59 82.8301 57.73L78.0801 57.82V42.89C78.0448 42.8761 78.0054 42.8761 77.9701 42.89C75.2101 42.89 75.2401 42.89 75.2401 43.11V57.88L71.1801 58C70.9001 32.18 70.6701 32.65 70.7701 32.65C70.7705 32.5859 70.7473 32.524 70.7048 32.476C70.6624 32.428 70.6037 32.3974 70.5401 32.39C70.5401 32.39 67.4301 32.39 67.3301 32.47C66.9901 32.68 67.4701 56.3 67.4701 58.08L61.9701 58.18C62.0001 19.21 62.1101 21 61.8501 21L59.4001 21.09C59.2301 21.09 59.2901 18.7 59.2901 58.22C55.1701 58.3 55.2901 58.22 55.2301 58.38C55.2109 58.4112 55.2002 58.4468 55.199 58.4835C55.1978 58.5201 55.2062 58.5564 55.2234 58.5887C55.2406 58.6211 55.266 58.6483 55.2969 58.6679C55.3279 58.6874 55.3635 58.6985 55.4001 58.7C61.4701 58.7 98.2301 58.33 104.22 58.15C103.62 59.68 103.73 61.37 105.12 62.26V62.48C99.3401 62.65 49.8801 62.48 48.9901 62.48C48.9901 61.17 47.8701 15.42 47.8601 12.86C54.7901 12.86 115.86 12.95 117.45 13.21C118.23 13.3362 118.971 13.6341 119.621 14.082C120.272 14.5299 120.814 15.1167 121.21 15.8ZM12.2101 60.7C11.0601 62.36 11.0001 64.52 11.0001 66.61C11.0001 67.07 12.4001 116.29 12.6101 117.49C12.7297 118.361 13.0343 119.196 13.5035 119.939C13.9726 120.683 14.5955 121.317 15.3301 121.8C14.1547 121.741 13.0056 121.431 11.9601 120.89C9.74011 119.67 8.90011 117.16 8.60011 115.77C8.07011 113.27 7.37011 70.33 7.49011 68.11C7.42011 64.43 8.67011 62.44 12.1901 60.7H12.2101ZM162.21 173.79C166.213 173.511 170.134 172.522 173.79 170.87C176.39 169.67 179.63 167.77 180.97 166.26C181.18 170.98 180.22 174.03 175.37 176.26C168.95 179.26 153.72 182.94 147.14 178.55C146.55 177.98 145.14 173.65 144.58 171.65C147.45 173.56 155.81 174.3 162.19 173.79H162.21ZM71.7701 186.89C70.9301 186.82 70.5301 187.66 70.2501 188.27C67.9101 193.27 67.9401 193.59 65.5601 193.75C64.8101 193.8 57.7501 194.38 57.2301 194.38C55.4101 194.51 54.4001 193.26 55.6901 191.73C56.4255 191.175 57.2417 190.737 58.1101 190.43C60.8901 189.14 65.2901 185.73 66.2601 181.51C67.2639 182.689 68.6331 183.499 70.1501 183.81C72.0282 184.011 73.9224 183.624 75.5701 182.7C75.1901 184.86 74.3101 191.59 74.2001 193.7C73.6155 193.639 73.0278 193.612 72.4401 193.62C72.4301 193.05 72.2401 186.93 71.7501 186.89H71.7701ZM75.4501 181.74C74.1506 182.659 72.5915 183.139 71.0001 183.11C70.1583 183.047 69.3385 182.811 68.5918 182.417C67.8451 182.023 67.1876 181.479 66.6601 180.82C66.6601 180.51 66.5501 177.16 66.5801 175.36C69.8202 175.616 73.0725 175.679 76.3201 175.55C76.1601 176.43 75.6501 180 75.4301 181.74H75.4501Z" fill="white"/>
<path d="M175 52.6601C175.056 52.6486 175.107 52.6179 175.144 52.5733C175.18 52.5286 175.2 52.4727 175.2 52.4151C175.2 52.3574 175.18 52.3015 175.144 52.2569C175.107 52.2122 175.056 52.1815 175 52.1701H173.32C160.75 52.5601 161.16 52.5501 161.17 52.9001C161.18 53.2501 160.79 53.3301 175 52.6601ZM175.42 55.0001C173.18 55.0001 164.42 55.1201 162.17 55.3001C162.091 55.3138 162.019 55.3549 161.968 55.4162C161.916 55.4774 161.888 55.555 161.888 55.6351C161.888 55.7152 161.916 55.7927 161.968 55.854C162.019 55.9153 162.091 55.9564 162.17 55.9701C164.46 55.9701 173.17 55.5201 175.43 55.4301C175.479 55.4183 175.522 55.3902 175.553 55.3503C175.584 55.3105 175.6 55.2613 175.599 55.211C175.597 55.1608 175.579 55.1124 175.547 55.074C175.514 55.0356 175.469 55.0095 175.42 55.0001ZM173.22 58.6801C171.66 58.7401 166.65 58.6801 161.87 58.6801C161.764 58.6801 161.662 58.7222 161.587 58.7972C161.512 58.8722 161.47 58.974 161.47 59.0801C161.47 59.1862 161.512 59.2879 161.587 59.3629C161.662 59.4379 161.764 59.4801 161.87 59.4801C162.87 59.5501 172.25 59.1601 173.23 59.1201C173.288 59.1187 173.344 59.0943 173.384 59.0521C173.424 59.0099 173.446 58.9534 173.445 58.8951C173.444 58.8367 173.419 58.7813 173.377 58.741C173.335 58.7007 173.278 58.6787 173.22 58.6801ZM141 8.71007C139.828 8.99784 138.756 9.59811 137.899 10.4469C137.041 11.2957 136.43 12.3613 136.13 13.5301C135.02 17.7801 138.87 22.4101 143.3 21.6701C144.268 21.4656 145.184 21.0657 145.992 20.4949C146.801 19.924 147.484 19.1942 148 18.3501C148.504 17.4185 148.791 16.3845 148.838 15.3261C148.884 14.2677 148.69 13.2125 148.27 12.2401C147.67 10.5201 145.89 7.77007 141 8.71007ZM143.42 17.1401C141.49 18.4701 139.23 16.0501 140.12 14.5601C141.72 11.9001 144.56 13.9101 144.63 14.9101C144.629 15.3541 144.517 15.7907 144.304 16.1802C144.09 16.5697 143.783 16.8997 143.41 17.1401H143.42ZM143.3 12.5901C142.625 12.3777 141.899 12.395 141.235 12.6393C140.571 12.8835 140.006 13.341 139.63 13.9401C139.322 14.4794 139.206 15.107 139.301 15.7207C139.395 16.3344 139.694 16.8981 140.15 17.3201C140.513 17.6684 140.959 17.9178 141.446 18.0444C141.933 18.171 142.444 18.1706 142.931 18.0431C143.417 17.9157 143.863 17.6656 144.225 17.3166C144.588 16.9676 144.854 16.5316 145 16.0501C145.853 16.6098 146.808 16.9971 147.81 17.1901C147.456 18.0539 146.913 18.8274 146.221 19.4539C145.528 20.0803 144.705 20.5437 143.81 20.8101C139.81 21.9701 136.25 18.3401 136.7 14.4201C136.832 13.5071 137.169 12.636 137.687 11.8725C138.205 11.1091 138.889 10.4731 139.688 10.0128C140.488 9.55245 141.381 9.2797 142.301 9.21513C143.221 9.15056 144.144 9.29586 145 9.64007C144.208 10.4769 143.623 11.487 143.29 12.5901H143.3Z" fill="white"/>
<path d="M132 25.88C134.44 25.75 179.12 25.41 182.38 24.44C184.89 23.98 185.75 22.82 185.62 20.29C185.62 19.45 185.76 9.81997 185.5 8.10997C185.27 5.99997 184.14 4.99997 181.76 4.86997C179.76 4.67997 133.41 5.39997 131.22 5.86997C129.44 6.21997 128.22 6.86997 127.98 8.86997C127.87 9.47997 128.35 20.77 128.41 21.87C128.55 24.25 129.74 25.66 132 25.88ZM135.9 25.2C135.311 25.129 134.746 24.928 134.244 24.6115C133.743 24.295 133.318 23.8709 133 23.37C132.295 22.156 131.932 20.7737 131.95 19.37C131.84 17.67 131.52 11.37 131.48 9.84997C131.48 9.22997 131.48 7.16997 133 6.42997C135.35 6.18997 179.13 5.53997 181 5.59997C182 5.59997 183.35 5.67997 184.11 6.44997C185.23 7.57997 184.87 9.44997 184.94 20.2C185.16 22.94 184.12 23.54 181.56 23.91C179.26 24.26 136.3 25.2 135.92 25.2H135.9ZM130.8 8.57997C130.67 9.47997 131.2 18.08 131.25 19.22C131.37 22.05 132.18 24.06 133.78 25.22H132.78C130.34 25.22 129.23 24.05 129.12 21.56C129.06 20.14 128.6 9.55997 128.7 8.95997C128.91 7.13997 130.14 6.73997 131.77 6.53997C131.265 7.11505 130.935 7.82307 130.82 8.57997H130.8Z" fill="white"/>
<path d="M154.4 11.17C154.77 11.17 166.25 10.88 166.15 10.88C166.202 10.8691 166.248 10.8408 166.281 10.7998C166.314 10.7589 166.332 10.7078 166.332 10.655C166.332 10.6023 166.314 10.5512 166.281 10.5103C166.248 10.4693 166.202 10.441 166.15 10.43C165.3 10.43 155.39 10.26 154.38 10.43C154.303 10.458 154.237 10.5094 154.191 10.5771C154.145 10.6448 154.121 10.7254 154.123 10.8073C154.125 10.8892 154.153 10.9683 154.203 11.0334C154.253 11.0985 154.322 11.1463 154.4 11.17ZM169.67 14.31C168.23 14.45 153.77 13.96 153.67 14.69C153.67 14.83 153.8 14.94 153.9 14.96C155.16 15.11 169.62 14.8 169.72 14.79C169.752 14.7868 169.782 14.7773 169.81 14.7622C169.838 14.7471 169.863 14.7267 169.883 14.7021C169.903 14.6775 169.917 14.6492 169.926 14.6188C169.935 14.5884 169.938 14.5566 169.935 14.525C169.932 14.4935 169.922 14.463 169.907 14.4351C169.892 14.4072 169.872 14.3826 169.847 14.3627C169.823 14.3427 169.794 14.3278 169.764 14.3187C169.734 14.3097 169.702 14.3068 169.67 14.31ZM169.38 18.15C166.91 18.15 154.46 18.09 153.81 18.2C153.746 18.217 153.69 18.2546 153.649 18.3071C153.609 18.3595 153.587 18.4239 153.587 18.49C153.587 18.5562 153.609 18.6206 153.649 18.673C153.69 18.7255 153.746 18.7631 153.81 18.78C154.5 18.89 168.37 18.57 169.39 18.54C169.434 18.5289 169.473 18.5031 169.5 18.467C169.528 18.4308 169.542 18.3864 169.541 18.3411C169.54 18.2957 169.523 18.2521 169.494 18.2174C169.465 18.1827 169.425 18.1589 169.38 18.15ZM28.0002 82.21C34.7702 81.66 38.3602 72.94 33.1002 68.1C32.9102 67.93 33.2702 67.55 27.7302 75.56C21.0302 69.21 21.3902 69.45 21.2402 69.56C15.9402 74.79 21.1902 82.77 28.0002 82.21Z" fill="white"/>
<path d="M27.2601 72.28C27.4501 72.49 27.3601 72.52 31.8901 64.88C31.901 64.863 31.9083 64.844 31.9117 64.8242C31.9151 64.8043 31.9144 64.784 31.9097 64.7644C31.9051 64.7448 31.8965 64.7263 31.8845 64.7101C31.8726 64.6939 31.8575 64.6802 31.8401 64.67C30.2427 63.8293 28.4124 63.5392 26.6333 63.8448C24.8542 64.1503 23.2256 65.0345 22.0001 66.36C21.8801 66.51 21.7001 66.22 27.2601 72.28ZM16.8101 109.33C17.0666 109.328 17.3169 109.251 17.5294 109.107C17.742 108.964 17.9073 108.76 18.0046 108.523C18.1018 108.286 18.1267 108.025 18.0761 107.773C18.0255 107.522 17.9017 107.291 17.7201 107.11C18.2201 106.3 21.4601 100.97 22.4101 99.53C22.6563 99.6438 22.9311 99.6809 23.1987 99.6363C23.4663 99.5917 23.7142 99.4675 23.9101 99.28L28.5301 102.84C28.4548 103.063 28.4414 103.302 28.4913 103.532C28.5412 103.762 28.6525 103.974 28.8135 104.146C28.9744 104.317 29.1789 104.442 29.4051 104.506C29.6314 104.571 29.8709 104.573 30.0982 104.512C30.3254 104.451 30.5319 104.33 30.6956 104.161C30.8592 103.992 30.974 103.781 31.0275 103.552C31.0811 103.323 31.0715 103.084 30.9998 102.86C30.928 102.636 30.7968 102.435 30.6201 102.28L32.2601 100.12C32.5537 100.254 32.8864 100.275 33.1946 100.18C33.5028 100.084 33.7647 99.8772 33.9301 99.6L38.7101 101.22C38.6843 101.435 38.7126 101.653 38.7926 101.855C38.8725 102.056 39.0015 102.234 39.1678 102.373C39.3341 102.512 39.5324 102.607 39.7448 102.65C39.9572 102.692 40.1769 102.681 40.384 102.617C40.591 102.553 40.7788 102.439 40.9302 102.284C41.0817 102.129 41.1921 101.939 41.2513 101.73C41.3106 101.522 41.3168 101.302 41.2694 101.091C41.2221 100.879 41.1226 100.683 40.9801 100.52C41.3801 99.09 44.8401 88.52 45.1901 87.52C45.526 87.4907 45.8376 87.3331 46.0601 87.08C47.0101 87.83 49.8601 89.96 50.7801 90.58C50.7276 90.787 50.7268 91.0037 50.7779 91.2111C50.829 91.4184 50.9304 91.61 51.0731 91.7688C51.2159 91.9277 51.3955 92.0489 51.5963 92.1218C51.797 92.1948 52.0126 92.2171 52.224 92.1869C52.4354 92.1567 52.6361 92.0749 52.8084 91.9487C52.9807 91.8225 53.1192 91.6558 53.2117 91.4633C53.3043 91.2709 53.348 91.0586 53.339 90.8452C53.33 90.6318 53.2686 90.424 53.1601 90.24C55.8201 86 55.9401 86.07 55.6601 85.88C55.6075 85.8473 55.5446 85.8353 55.4836 85.8464C55.4226 85.8575 55.3679 85.8909 55.3301 85.94C54.8601 86.62 52.6401 89.74 52.6401 89.74C52.4036 89.6235 52.138 89.5794 51.8765 89.6132C51.615 89.647 51.3693 89.7572 51.1701 89.93C50.2401 89.28 47.2901 87.17 46.3501 86.44C46.3903 86.2092 46.3674 85.9719 46.2838 85.7531C46.2002 85.5342 46.059 85.3421 45.8752 85.1969C45.6913 85.0517 45.4717 84.9589 45.2395 84.9282C45.0072 84.8976 44.7711 84.9303 44.5559 85.0228C44.3407 85.1153 44.1545 85.2643 44.017 85.4539C43.8795 85.6436 43.7957 85.8668 43.7747 86.1001C43.7536 86.3334 43.7959 86.5681 43.8972 86.7793C43.9985 86.9905 44.155 87.1704 44.3501 87.3C43.4901 89.64 40.9901 97.74 40.3501 100.1C40.1098 100.038 39.857 100.044 39.6202 100.119C39.3834 100.193 39.1721 100.332 39.0101 100.52C38.0101 100.18 35.0101 99.27 34.1001 98.98C34.1001 98.6378 33.9642 98.3097 33.7223 98.0678C33.4804 97.8259 33.1523 97.69 32.8101 97.69C32.468 97.69 32.1399 97.8259 31.898 98.0678C31.6561 98.3097 31.5201 98.6378 31.5201 98.98C31.5223 99.2656 31.617 99.5428 31.7901 99.77L30.0001 102C29.8287 101.962 29.6513 101.961 29.4792 101.995C29.3071 102.03 29.144 102.099 29.0001 102.2L24.2301 98.59C24.2822 98.2804 24.2196 97.9625 24.0541 97.6958C23.8886 97.4291 23.6315 97.2319 23.331 97.1411C23.0305 97.0504 22.7072 97.0723 22.4218 97.2028C22.1363 97.3333 21.9081 97.5634 21.7801 97.85C21.6807 98.0561 21.6402 98.2856 21.6631 98.5133C21.6861 98.741 21.7716 98.9579 21.9101 99.14C20.9701 100.55 17.5601 106 17.0701 106.79C16.8907 106.745 16.7036 106.739 16.5216 106.773C16.3396 106.806 16.167 106.879 16.0155 106.985C15.8639 107.091 15.737 107.229 15.6434 107.388C15.5497 107.548 15.4915 107.726 15.4726 107.91C15.4538 108.094 15.4748 108.28 15.5341 108.455C15.5935 108.63 15.6899 108.791 15.8168 108.926C15.9437 109.06 16.0981 109.166 16.2695 109.236C16.4408 109.306 16.6253 109.338 16.8101 109.33ZM34.2101 112.87C34.1359 112.87 34.0647 112.899 34.0122 112.952C33.9596 113.004 33.9301 113.076 33.9301 113.15C33.9301 113.224 33.9596 113.295 34.0122 113.348C34.0647 113.4 34.1359 113.43 34.2101 113.43C35.9601 113.43 56.5001 112.63 57.2101 112.62C57.2568 112.61 57.2985 112.584 57.3284 112.546C57.3583 112.509 57.3746 112.463 57.3746 112.415C57.3746 112.367 57.3583 112.321 57.3284 112.284C57.2985 112.246 57.2568 112.22 57.2101 112.21C54.4201 112.22 36.0001 112.67 34.2101 112.87ZM43.0001 105.72C43.0638 105.72 43.1248 105.695 43.1698 105.65C43.2149 105.605 43.2401 105.544 43.2401 105.48C43.2401 105.416 43.2149 105.355 43.1698 105.31C43.1248 105.265 43.0638 105.24 43.0001 105.24C42.2101 105.24 39.3501 105.07 38.6801 105.1C38.5634 105.1 38.4515 105.146 38.369 105.229C38.2865 105.311 38.2401 105.423 38.2401 105.54C38.2401 105.657 38.2865 105.769 38.369 105.851C38.4515 105.934 38.5634 105.98 38.6801 105.98C39.3401 106.06 42.1701 105.79 43.0001 105.72ZM32.3101 107H28.0001C27.9069 107.004 27.8166 107.034 27.7387 107.085C27.6607 107.136 27.598 107.208 27.5571 107.291C27.5162 107.375 27.4986 107.469 27.5062 107.562C27.5138 107.655 27.5462 107.744 27.6001 107.82C27.8701 108.22 28.0801 107.91 32.3301 107.55C32.3829 107.525 32.4271 107.485 32.4574 107.435C32.4877 107.385 32.5027 107.327 32.5005 107.268C32.4984 107.21 32.4793 107.153 32.4454 107.106C32.4116 107.058 32.3646 107.021 32.3101 107ZM15.2601 112.34C15.4701 112.34 18.5101 112.01 19.1801 111.98C19.2544 111.98 19.3256 111.95 19.3781 111.898C19.4306 111.845 19.4601 111.774 19.4601 111.7C19.4601 111.626 19.4306 111.554 19.3781 111.502C19.3256 111.449 19.2544 111.42 19.1801 111.42C18.7901 111.42 15.4101 111.56 15.1801 111.67C15.1191 111.707 15.0699 111.76 15.0386 111.824C15.0073 111.888 14.9951 111.96 15.0036 112.031C15.012 112.102 15.0407 112.168 15.0863 112.223C15.1318 112.278 15.1921 112.319 15.2601 112.34Z" fill="white"/>
<path d="M50.5501 94.9999H50.7101C54.9601 94.6199 54.8101 94.9099 54.9901 94.7099C55.0233 94.6707 55.0451 94.6231 55.0531 94.5723C55.0611 94.5216 55.0549 94.4696 55.0353 94.422C55.0157 94.3745 54.9833 94.3333 54.9419 94.303C54.9004 94.2726 54.8513 94.2543 54.8001 94.2499C53.3101 94.2499 51.9101 94.1199 50.5701 94.1799C50.0001 94.1899 50.0501 94.9999 50.5501 94.9999ZM28.1901 86.2699C28.0814 86.2699 27.9771 86.3131 27.9002 86.39C27.8233 86.4669 27.7801 86.5712 27.7801 86.6799C27.7801 86.7887 27.8233 86.893 27.9002 86.9699C27.9771 87.0467 28.0814 87.0899 28.1901 87.0899C29.6201 87.0899 35.1901 86.5799 36.5401 86.4399C36.6041 86.4277 36.6618 86.3935 36.7033 86.3433C36.7447 86.2931 36.7674 86.2301 36.7674 86.1649C36.7674 86.0998 36.7447 86.0367 36.7033 85.9865C36.6618 85.9363 36.6041 85.9022 36.5401 85.8899C35.1501 85.9999 29.5701 86.1499 28.1901 86.2699ZM27.5101 88.6099C27.4297 88.6299 27.3593 88.6785 27.3122 88.7467C27.2651 88.8149 27.2445 88.898 27.2544 88.9803C27.2642 89.0625 27.3037 89.1384 27.3656 89.1936C27.4274 89.2488 27.5072 89.2795 27.5901 89.2799C29.1701 89.2799 35.3701 88.7199 36.9301 88.7099C36.9991 88.7099 37.0652 88.6825 37.114 88.6338C37.1627 88.585 37.1901 88.5189 37.1901 88.4499C37.1901 88.381 37.1627 88.3148 37.114 88.2661C37.0652 88.2173 36.9991 88.1899 36.9301 88.1899C33.7843 88.1207 30.6373 88.261 27.5101 88.6099ZM36.1301 90.2099C33.5131 90.1722 30.896 90.2757 28.2901 90.5199C27.8101 90.5799 27.7901 91.3099 28.2901 91.3099C29.1801 91.3099 34.0401 90.8099 36.1401 90.7299C36.1743 90.7293 36.2079 90.7219 36.2392 90.7082C36.2705 90.6946 36.2988 90.6749 36.3225 90.6503C36.3462 90.6256 36.3648 90.5966 36.3772 90.5648C36.3897 90.533 36.3958 90.4991 36.3951 90.4649C36.3945 90.4308 36.3871 90.3971 36.3734 90.3658C36.3597 90.3345 36.34 90.3062 36.3154 90.2826C36.2908 90.2589 36.2618 90.2403 36.23 90.2278C36.1982 90.2154 36.1643 90.2093 36.1301 90.2099ZM39.4201 68.6699C39.9101 68.6699 44.9001 68.1499 45.8801 68.0799C45.9491 68.0799 46.0152 68.0525 46.064 68.0038C46.1127 67.955 46.1401 67.8889 46.1401 67.8199C46.1401 67.751 46.1127 67.6849 46.064 67.6361C46.0152 67.5873 45.9491 67.5599 45.8801 67.5599C45.3901 67.5599 40.0401 67.7199 39.4501 67.7599C38.8601 67.7999 38.8601 68.6699 39.4201 68.6699ZM40.4501 70.6899C42.0201 70.6899 48.1401 70.1099 49.6901 70.0099C49.7466 69.9985 49.7974 69.9678 49.8339 69.9231C49.8704 69.8785 49.8904 69.8226 49.8904 69.7649C49.8904 69.7073 49.8704 69.6514 49.8339 69.6067C49.7974 69.5621 49.7466 69.5314 49.6901 69.5199C48.1301 69.5899 41.9701 69.6199 40.4401 69.7799C40.3312 69.7973 40.2321 69.8533 40.161 69.9376C40.0899 70.0219 40.0514 70.1289 40.0526 70.2393C40.0538 70.3496 40.0946 70.4558 40.1676 70.5385C40.2406 70.6212 40.3408 70.675 40.4501 70.6899Z" fill="white"/>
</svg>
